<svg xmlns="http://www.w3.org/2000/svg" viewBox="0 0 860 250" width="860" height="250" role="img" aria-labelledby="title desc">
  <title id="title">Lamarq7eYT - Frame a Frame Ink Header</title>
  <desc id="desc">Black and white ink frame-by-frame header with colored animated letters spelling Lamarq7eYT.</desc>
  <defs>
    <linearGradient id="bg" x1="0" y1="0" x2="1" y2="1"><stop offset="0" stop-color="#050306"/><stop offset="1" stop-color="#120818"/></linearGradient>
    <style>
      .t{font-family:'Courier New',monospace;fill:#F2EAFB}.s{fill:#A99AB8}.g{fill:#C77DFF}.h{fill:#2A083F;stroke:#7B2CBF;stroke-width:1.3}
      @keyframes breathe{0%,100%{transform:translateY(0)}50%{transform:translateY(-4px)}}
      @keyframes blink{0%,44%,100%{opacity:.1}46%,50%{opacity:.95}}
      @keyframes drift{0%,100%{transform:translateX(0)}50%{transform:translateX(10px)}}
      .handL,.handR,.handB{opacity:.2;animation:breathe 9s ease-in-out infinite}.handR{animation-delay:1.5s}.handB{animation-delay:3s}
      .eye{animation:blink 8s infinite}
      .mist{animation:drift 16s ease-in-out infinite}
    </style>
  </defs>
  <rect width="860" height="250" fill="url(#bg)"/>
  <path class="mist" d="M0 25C140 5 230 45 332 24C433 4 535 40 640 22C725 8 792 13 860 7V65C760 70 690 95 595 83C498 72 410 97 316 84C219 70 127 95 0 81Z" fill="#1A001F" opacity=".75"/>
  <g class="handL"><path d="M22 60C66 79 86 130 73 182C46 177 27 160 18 138C9 116 8 84 22 60Z" fill="#2A083F"/><path d="M84 75C109 102 112 142 94 178" stroke="#C77DFF" opacity=".4"/></g>
  <g class="handR"><path d="M838 58C794 80 774 132 787 186C814 180 833 161 842 138C851 115 852 84 838 58Z" fill="#2A083F"/><path d="M776 74C751 100 747 143 766 182" stroke="#C77DFF" opacity=".4"/></g>
  <g class="handB"><path d="M300 232C338 209 386 204 430 219C474 204 521 209 560 232" fill="none" stroke="#7B2CBF" stroke-width="12" stroke-linecap="round" opacity=".2"/></g>
  <text x="430" y="72" text-anchor="middle" class="t" style="font-size:16px;letter-spacing:4px">Llewxam</text>
  <g transform="translate(145 92)">
    <rect x="0" y="0" width="570" height="84" rx="8" fill="#0A0610" stroke="#2A083F"/>
    <text x="285" y="54" text-anchor="middle" class="t" style="font-size:44px;font-weight:900;letter-spacing:6px">LAMARQ7EYT</text>
    <ellipse class="eye" cx="88" cy="20" rx="8" ry="3" fill="#C77DFF"/><ellipse class="eye" cx="482" cy="20" rx="8" ry="3" fill="#C77DFF" style="animation-delay:1.3s"/>
  </g>
  <text x="430" y="205" text-anchor="middle" class="g" style="font-family:'Courier New',monospace;font-size:28px;letter-spacing:4px">FRAME A FRAME</text>
  <text x="430" y="228" text-anchor="middle" class="s" style="font-family:'Courier New',monospace;font-size:12px;letter-spacing:3px">BLACK INK / WHITE PAPER / COLORED MOTION</text>
</svg>
