<svg xmlns="http://www.w3.org/2000/svg" viewBox="0 0 860 118" width="860" height="118" role="img" aria-labelledby="title desc">
  <title id="title">Animated white ink skill lines</title>
  <desc id="desc">One white ink phrase appears at a time, then vanishes through black frame cuts.</desc>
  <defs>
    <style>
      .bg { fill: #F2EAFB; }
      .paper { fill: #0A0610; }
      .black { fill: #F2EAFB; }
      .line {
        font-family: 'Courier New', Courier, monospace;
        font-size: 18px;
        font-weight: 900;
        letter-spacing: .7px;
        fill: #0A0610;
      }
      .label {
        font-family: 'Courier New', Courier, monospace;
        font-size: 10px;
        font-weight: 900;
        letter-spacing: 2px;
        fill: #0A0610;
      }
      .hole { fill: #0A0610; opacity: .92; }
    </style>
  </defs>

  <rect class="bg" width="860" height="118"/>
  <rect class="paper" x="34" y="18" width="792" height="82" rx="4" opacity=".05"/>
  <rect class="paper" x="34" y="18" width="792" height="2" opacity=".38"/>
  <rect class="paper" x="34" y="98" width="792" height="2" opacity=".38"/>

  <g opacity=".9">
    <rect class="hole" x="51" y="30" width="16" height="10"/>
    <rect class="hole" x="51" y="54" width="16" height="10"/>
    <rect class="hole" x="51" y="78" width="16" height="10"/>
    <rect class="hole" x="793" y="30" width="16" height="10"/>
    <rect class="hole" x="793" y="54" width="16" height="10"/>
    <rect class="hole" x="793" y="78" width="16" height="10"/>
  </g>

  <g opacity="0">
    <path class="paper" d="M191 49C258 20 311 64 378 39C453 10 513 64 590 35C633 19 672 30 704 34V80C648 94 606 67 548 87C474 113 420 66 350 92C283 117 236 75 191 92Z" opacity=".18"/>
    <circle class="paper" cx="229" cy="40" r="5"/>
    <circle class="paper" cx="640" cy="82" r="6"/>
    <animate attributeName="opacity" dur="15s" repeatCount="indefinite" values="0;0;1;1;0;0" keyTimes="0;.02;.05;.17;.2;1"/>
  </g>
  <g opacity="0">
    <path class="paper" d="M155 72C223 39 289 82 356 57C432 28 491 84 569 54C626 33 675 48 727 43V88C657 96 612 75 548 95C477 118 420 77 350 100C285 121 222 82 155 101Z" opacity=".18"/>
    <circle class="paper" cx="191" cy="80" r="5"/>
    <circle class="paper" cx="708" cy="48" r="5"/>
    <animate attributeName="opacity" dur="15s" repeatCount="indefinite" values="0;0;1;1;0;0" keyTimes="0;.2;.23;.37;.4;1"/>
  </g>
  <g opacity="0">
    <path class="paper" d="M164 46C237 21 292 63 363 39C436 15 496 66 572 36C632 12 683 34 730 29V75C666 83 615 64 548 84C474 105 418 67 348 90C280 112 225 72 164 90Z" opacity=".2"/>
    <circle class="paper" cx="323" cy="34" r="6"/>
    <circle class="paper" cx="566" cy="84" r="5"/>
    <animate attributeName="opacity" dur="15s" repeatCount="indefinite" values="0;0;1;1;0;0" keyTimes="0;.4;.43;.57;.6;1"/>
  </g>
  <g opacity="0">
    <path class="paper" d="M143 58C215 30 282 75 352 49C425 21 486 78 562 48C623 24 681 42 735 38V83C669 94 613 70 545 92C476 114 421 77 350 98C280 119 217 82 143 100Z" opacity=".18"/>
    <circle class="paper" cx="245" cy="48" r="5"/>
    <circle class="paper" cx="688" cy="70" r="6"/>
    <animate attributeName="opacity" dur="15s" repeatCount="indefinite" values="0;0;1;1;0;0" keyTimes="0;.6;.63;.77;.8;1"/>
  </g>
  <g opacity="0">
    <path class="paper" d="M178 48C243 20 306 65 373 38C445 9 508 64 584 37C636 18 678 28 715 31V78C654 91 609 65 545 87C471 112 417 67 348 92C283 116 232 75 178 93Z" opacity=".2"/>
    <circle class="paper" cx="204" cy="52" r="5"/>
    <circle class="paper" cx="650" cy="43" r="5"/>
    <animate attributeName="opacity" dur="15s" repeatCount="indefinite" values="0;0;1;1;0;0" keyTimes="0;.8;.83;.97;.995;1"/>
  </g>

  <text class="line" x="430" y="66" text-anchor="middle" opacity="0">FRAME 01 - FULL-STACK DEVELOPER
    <animate attributeName="opacity" dur="15s" repeatCount="indefinite" values="0;0;1;1;0;0" keyTimes="0;.02;.05;.17;.2;1"/>
  </text>
  <text class="line" x="430" y="66" text-anchor="middle" opacity="0">FRAME 02 - SECURITY ENGINEERING STUDENT
    <animate attributeName="opacity" dur="15s" repeatCount="indefinite" values="0;0;1;1;0;0" keyTimes="0;.2;.23;.37;.4;1"/>
  </text>
  <text class="line" x="430" y="66" text-anchor="middle" opacity="0">FRAME 03 - PYTHON + JS/TS + RUST + ASSEMBLY
    <animate attributeName="opacity" dur="15s" repeatCount="indefinite" values="0;0;1;1;0;0" keyTimes="0;.4;.43;.57;.6;1"/>
  </text>
  <text class="line" x="430" y="66" text-anchor="middle" opacity="0">FRAME 04 - MAJOR JS/TS FRAMEWORKS
    <animate attributeName="opacity" dur="15s" repeatCount="indefinite" values="0;0;1;1;0;0" keyTimes="0;.6;.63;.77;.8;1"/>
  </text>
  <text class="line" x="430" y="66" text-anchor="middle" opacity="0">FRAME 05 - BLACK INK / WHITE FRAMES / COLORED MOTION
    <animate attributeName="opacity" dur="15s" repeatCount="indefinite" values="0;0;1;1;0;0" keyTimes="0;.8;.83;.97;.995;1"/>
  </text>

  <g opacity="0">
    <path class="black" d="M0 34H260L230 86H0Z"/>
    <path class="black" d="M312 28H520L482 92H276Z"/>
    <path class="black" d="M575 34H860V88H540Z"/>
    <animate attributeName="opacity" dur="15s" repeatCount="indefinite" values="0;0;1;0;0;1;0;0;1;0;0;1;0;0;1;0" keyTimes="0;.17;.18;.2;.37;.38;.4;.57;.58;.6;.77;.78;.8;.97;.985;1"/>
  </g>

  <circle class="paper" cx="116" cy="22" r="4" opacity=".55">
    <animate attributeName="cy" dur="3.2s" repeatCount="indefinite" values="22;33;22"/>
    <animate attributeName="opacity" dur="3.2s" repeatCount="indefinite" values=".45;1;.45"/>
  </circle>
  <circle class="paper" cx="754" cy="24" r="5" opacity=".55">
    <animate attributeName="cy" dur="3.7s" repeatCount="indefinite" values="24;36;24"/>
    <animate attributeName="opacity" dur="3.7s" repeatCount="indefinite" values=".45;1;.45"/>
  </circle>
  <circle class="paper" cx="423" cy="99" r="4" opacity=".55">
    <animate attributeName="cy" dur="3.4s" repeatCount="indefinite" values="99;108;99"/>
    <animate attributeName="opacity" dur="3.4s" repeatCount="indefinite" values=".45;1;.45"/>
  </circle>
  <text class="label" x="430" y="94" text-anchor="middle">BENDY-STYLE INK MACHINE REEL / FRAME CUT / SPLASH LOOP</text>
</svg>
