<svg xmlns="http://www.w3.org/2000/svg" viewBox="0 0 860 270" width="860" height="270" role="img" aria-labelledby="title desc">
  <title id="title">JAVASCRIPT / TYPESCRIPT FRAMEWORKS</title>
  <desc id="desc">Animated ink and film toolkit reel with real tool logos.</desc>
  <defs>
    <style>
      .bg { fill:#050306; }
      .paper { fill:#0A0610; }
      .card { fill:#0A0610; stroke:#7B2CBF; stroke-width:2; }
      .logoCell { fill:#120818; stroke:#2A083F; stroke-width:2; }
      .cut { stroke:#2A083F; stroke-width:2; }
      .title { font-family:'Courier New', Courier, monospace; font-size:18px; font-weight:900; letter-spacing:3px; fill:#F2EAFB; stroke:#2A083F; stroke-width:2px; paint-order:stroke; }
      .name { font-family:'Courier New', Courier, monospace; font-size:13px; font-weight:900; letter-spacing:1px; fill:#F2EAFB; }
      .small { font-family:'Courier New', Courier, monospace; font-size:9px; font-weight:900; fill:#A99AB8; letter-spacing:2px; }
      @keyframes lift { 0%,100%{transform:translateY(0)} 50%{transform:translateY(-4px)} }
      @keyframes pass { 0%{transform:translateX(-220px);opacity:0} 25%,75%{opacity:.65} 100%{transform:translateX(900px);opacity:0} }
      .a1{animation:lift 3s steps(2,end) infinite}.a2{animation:lift 3s steps(2,end) .18s infinite}.a3{animation:lift 3s steps(2,end) .36s infinite}.a4{animation:lift 3s steps(2,end) .54s infinite}.a5{animation:lift 3s steps(2,end) .72s infinite}
      .wipe{animation:pass 5s linear infinite}
    </style>
  </defs>
  <rect class="bg" width="860" height="270"/>
  <path class="paper" d="M0 0H860V24C782 15 731 35 652 22C574 9 507 35 430 21C352 8 291 8 219 23C142 40 69 14 0 30Z"/>
  <path class="paper" d="M0 244C78 254 139 232 218 246C295 260 355 239 430 249C509 261 574 237 652 248C733 259 790 246 860 238V270H0Z"/>
  <rect class="paper" x="20" y="40" width="820" height="2" opacity=".65"/>
  <rect class="paper" x="20" y="220" width="820" height="2" opacity=".65"/>
  <g class="wipe"><path class="paper" d="M20 96C76 75 119 114 177 91C234 69 280 112 338 88V132C273 153 235 108 174 136C112 164 75 119 20 141Z" opacity=".14"/></g>
  <text class="title" x="430" y="31" text-anchor="middle">JAVASCRIPT / TYPESCRIPT FRAMEWORKS</text>
  <text class="small" x="430" y="252" text-anchor="middle">NODE / REACT / NEXT / VUE / NUXT / ANGULAR / SVELTE / ASTRO / REMIX / EXPRESS / NEST / FASTIFY / VITE / TAILWIND</text>
  <g transform="translate(45 58)">
    <g class="a1"><rect class="card" x="0" y="0" width="134" height="42" rx="4"/><rect class="logoCell" x="0" y="0" width="46" height="42" rx="4"/><path class="cut" d="M46 1V41"/><svg x="9" y="7" width="28" height="28" viewBox="0 0 128 128" preserveAspectRatio="xMidYMid meet" aria-hidden="true"><path fill="url(#nodejs-a)" d="M66.958.825a6.07 6.07 0 0 0-6.035 0L11.103 29.76c-1.895 1.072-2.96 3.095-2.96 5.24v57.988c0 2.143 1.183 4.167 2.958 5.24l49.82 28.934a6.07 6.07 0 0 0 6.036 0l49.82-28.935c1.894-1.072 2.958-3.096 2.958-5.24V35c0-2.144-1.183-4.167-2.958-5.24z"/><path fill="url(#nodejs-b)" d="M116.897 29.76 66.841.825A8.161 8.161 0 0 0 65.302.23L9.21 96.798a6.251 6.251 0 0 0 1.657 1.43l50.057 28.934c1.42.833 3.076 1.072 4.615.595l52.66-96.925a3.702 3.702 0 0 0-1.302-1.072z"/><path fill="url(#nodejs-c)" d="M116.898 98.225c1.42-.833 2.485-2.262 2.958-3.81L65.066.108c-1.42-.238-2.959-.119-4.26.715L11.104 29.639l53.606 98.355c.71-.12 1.54-.358 2.25-.715z"/><defs><linearGradient id="nodejs-a" x1="34.513" x2="27.157" y1="15.535" y2="30.448" gradientTransform="translate(-129.242 -73.715) scale(6.18523)" gradientUnits="userSpaceOnUse"><stop stop-color="#3F873F"/><stop offset=".33" stop-color="#3F8B3D"/><stop offset=".637" stop-color="#3E9638"/><stop offset=".934" stop-color="#3DA92E"/><stop offset="1" stop-color="#3DAE2B"/></linearGradient><linearGradient id="nodejs-b" x1="30.009" x2="50.533" y1="23.359" y2="8.288" gradientTransform="translate(-129.242 -73.715) scale(6.18523)" gradientUnits="userSpaceOnUse"><stop offset=".138" stop-color="#3F873F"/><stop offset=".402" stop-color="#52A044"/><stop offset=".713" stop-color="#64B749"/><stop offset=".908" stop-color="#6ABF4B"/></linearGradient><linearGradient id="nodejs-c" x1="21.917" x2="40.555" y1="22.261" y2="22.261" gradientTransform="translate(-129.242 -73.715) scale(6.18523)" gradientUnits="userSpaceOnUse"><stop offset=".092" stop-color="#6ABF4B"/><stop offset=".287" stop-color="#64B749"/><stop offset=".598" stop-color="#52A044"/><stop offset=".862" stop-color="#3F873F"/></linearGradient></defs></svg><text class="name" x="90" y="27" text-anchor="middle" transform="translate(0 0)">NODE.JS</text></g>
    <g class="a2"><rect class="card" x="142" y="0" width="126" height="42" rx="4"/><rect class="logoCell" x="142" y="0" width="46" height="42" rx="4"/><path class="cut" d="M188 1V41"/><svg x="151" y="7" width="28" height="28" viewBox="0 0 128 128" preserveAspectRatio="xMidYMid meet" aria-hidden="true"><g fill="#61DAFB"><circle cx="64" cy="64" r="11.4"/><path d="M107.3 45.2c-2.2-.8-4.5-1.6-6.9-2.3.6-2.4 1.1-4.8 1.5-7.1 2.1-13.2-.2-22.5-6.6-26.1-1.9-1.1-4-1.6-6.4-1.6-7 0-15.9 5.2-24.9 13.9-9-8.7-17.9-13.9-24.9-13.9-2.4 0-4.5.5-6.4 1.6-6.4 3.7-8.7 13-6.6 26.1.4 2.3.9 4.7 1.5 7.1-2.4.7-4.7 1.4-6.9 2.3C8.2 50 1.4 56.6 1.4 64s6.9 14 19.3 18.8c2.2.8 4.5 1.6 6.9 2.3-.6 2.4-1.1 4.8-1.5 7.1-2.1 13.2.2 22.5 6.6 26.1 1.9 1.1 4 1.6 6.4 1.6 7.1 0 16-5.2 24.9-13.9 9 8.7 17.9 13.9 24.9 13.9 2.4 0 4.5-.5 6.4-1.6 6.4-3.7 8.7-13 6.6-26.1-.4-2.3-.9-4.7-1.5-7.1 2.4-.7 4.7-1.4 6.9-2.3 12.5-4.8 19.3-11.4 19.3-18.8s-6.8-14-19.3-18.8zM92.5 14.7c4.1 2.4 5.5 9.8 3.8 20.3-.3 2.1-.8 4.3-1.4 6.6-5.2-1.2-10.7-2-16.5-2.5-3.4-4.8-6.9-9.1-10.4-13 7.4-7.3 14.9-12.3 21-12.3 1.3 0 2.5.3 3.5.9zM81.3 74c-1.8 3.2-3.9 6.4-6.1 9.6-3.7.3-7.4.4-11.2.4-3.9 0-7.6-.1-11.2-.4-2.2-3.2-4.2-6.4-6-9.6-1.9-3.3-3.7-6.7-5.3-10 1.6-3.3 3.4-6.7 5.3-10 1.8-3.2 3.9-6.4 6.1-9.6 3.7-.3 7.4-.4 11.2-.4 3.9 0 7.6.1 11.2.4 2.2 3.2 4.2 6.4 6 9.6 1.9 3.3 3.7 6.7 5.3 10-1.7 3.3-3.4 6.6-5.3 10zm8.3-3.3c1.5 3.5 2.7 6.9 3.8 10.3-3.4.8-7 1.4-10.8 1.9 1.2-1.9 2.5-3.9 3.6-6 1.2-2.1 2.3-4.2 3.4-6.2zM64 97.8c-2.4-2.6-4.7-5.4-6.9-8.3 2.3.1 4.6.2 6.9.2 2.3 0 4.6-.1 6.9-.2-2.2 2.9-4.5 5.7-6.9 8.3zm-18.6-15c-3.8-.5-7.4-1.1-10.8-1.9 1.1-3.3 2.3-6.8 3.8-10.3 1.1 2 2.2 4.1 3.4 6.1 1.2 2.2 2.4 4.1 3.6 6.1zm-7-25.5c-1.5-3.5-2.7-6.9-3.8-10.3 3.4-.8 7-1.4 10.8-1.9-1.2 1.9-2.5 3.9-3.6 6-1.2 2.1-2.3 4.2-3.4 6.2zM64 30.2c2.4 2.6 4.7 5.4 6.9 8.3-2.3-.1-4.6-.2-6.9-.2-2.3 0-4.6.1-6.9.2 2.2-2.9 4.5-5.7 6.9-8.3zm22.2 21l-3.6-6c3.8.5 7.4 1.1 10.8 1.9-1.1 3.3-2.3 6.8-3.8 10.3-1.1-2.1-2.2-4.2-3.4-6.2zM31.7 35c-1.7-10.5-.3-17.9 3.8-20.3 1-.6 2.2-.9 3.5-.9 6 0 13.5 4.9 21 12.3-3.5 3.8-7 8.2-10.4 13-5.8.5-11.3 1.4-16.5 2.5-.6-2.3-1-4.5-1.4-6.6zM7 64c0-4.7 5.7-9.7 15.7-13.4 2-.8 4.2-1.5 6.4-2.1 1.6 5 3.6 10.3 6 15.6-2.4 5.3-4.5 10.5-6 15.5C15.3 75.6 7 69.6 7 64zm28.5 49.3c-4.1-2.4-5.5-9.8-3.8-20.3.3-2.1.8-4.3 1.4-6.6 5.2 1.2 10.7 2 16.5 2.5 3.4 4.8 6.9 9.1 10.4 13-7.4 7.3-14.9 12.3-21 12.3-1.3 0-2.5-.3-3.5-.9zM96.3 93c1.7 10.5.3 17.9-3.8 20.3-1 .6-2.2.9-3.5.9-6 0-13.5-4.9-21-12.3 3.5-3.8 7-8.2 10.4-13 5.8-.5 11.3-1.4 16.5-2.5.6 2.3 1 4.5 1.4 6.6zm9-15.6c-2 .8-4.2 1.5-6.4 2.1-1.6-5-3.6-10.3-6-15.6 2.4-5.3 4.5-10.5 6-15.5 13.8 4 22.1 10 22.1 15.6 0 4.7-5.8 9.7-15.7 13.4z"/></g></svg><text class="name" x="228" y="27" text-anchor="middle" transform="translate(0 0)">REACT</text></g>
    <g class="a3"><rect class="card" x="276" y="0" width="134" height="42" rx="4"/><rect class="logoCell" x="276" y="0" width="46" height="42" rx="4"/><path class="cut" d="M322 1V41"/><svg x="285" y="7" width="28" height="28" viewBox="0 0 128 128" preserveAspectRatio="xMidYMid meet" aria-hidden="true"><circle cx="64" cy="64" r="64"/><path fill="url(#nextjs-a)" d="M106.317 112.014 49.167 38.4H38.4v51.179h8.614v-40.24l52.54 67.884a64.216 64.216 0 0 0 6.763-5.209z"/><path fill="url(#nextjs-b)" d="M81.778 38.4h8.533v51.2h-8.533z"/><defs><linearGradient id="nextjs-a" x1="109" x2="144.5" y1="116.5" y2="160.5" gradientTransform="scale(.71111)" gradientUnits="userSpaceOnUse"><stop stop-color="#fff"/><stop offset="1" stop-color="#fff" stop-opacity="0"/></linearGradient><linearGradient id="nextjs-b" x1="121" x2="120.799" y1="54" y2="106.875" gradientTransform="scale(.71111)" gradientUnits="userSpaceOnUse"><stop stop-color="#fff"/><stop offset="1" stop-color="#fff" stop-opacity="0"/></linearGradient></defs></svg><text class="name" x="366" y="27" text-anchor="middle" transform="translate(0 0)">NEXT.JS</text></g>
    <g class="a4"><rect class="card" x="418" y="0" width="126" height="42" rx="4"/><rect class="logoCell" x="418" y="0" width="46" height="42" rx="4"/><path class="cut" d="M464 1V41"/><svg x="427" y="7" width="28" height="28" viewBox="0 0 128 128" preserveAspectRatio="xMidYMid meet" aria-hidden="true"><path d="M0 8.934l49.854.158 14.167 24.47 14.432-24.47L128 8.935l-63.834 110.14zm126.98.637l-24.36.02-38.476 66.053L25.691 9.592.942 9.572l63.211 107.89zm-25.149-.008l-22.745.168-15.053 24.647L49.216 9.73l-22.794-.168 37.731 64.476zm-75.834-.17l23.002.009m-23.002-.01l23.002.01" fill="none"/><path d="M25.997 9.393l23.002.009L64.035 34.36 79.018 9.404 102 9.398 64.15 75.053z" fill="#35495e"/><path d="M.91 9.569l25.067-.172 38.15 65.659L101.98 9.401l25.11.026-62.966 108.06z" fill="#41b883"/></svg><text class="name" x="504" y="27" text-anchor="middle" transform="translate(0 0)">VUE.JS</text></g>
    <g class="a5"><rect class="card" x="552" y="0" width="116" height="42" rx="4"/><rect class="logoCell" x="552" y="0" width="46" height="42" rx="4"/><path class="cut" d="M598 1V41"/><svg x="561" y="7" width="28" height="28" viewBox="0 0 128 128" preserveAspectRatio="xMidYMid meet" aria-hidden="true"><path d="M39.267 108.97l-.284-.567c-.567-1.135-.567-2.27-.283-3.689H8.059L53.454 24.14l19.009 34.33 6.241-4.54L59.695 19.6c-.283-.567-2.553-3.971-6.241-3.971-1.703 0-4.256.567-6.242 4.255L1.25 101.31c-.284.852-2.27 4.54-.568 7.66 1.135 1.703 2.838 3.405 6.81 3.405h38.585c-3.972 0-5.958-1.702-6.81-3.404z" fill="#00c58e"/><path d="M126.65 101.59L89.767 35.201c-.567-.567-2.553-4.256-6.242-4.256-1.702 0-4.255.851-6.241 4.256l-4.823 7.944v15.321l11.065-19.009 36.599 65.254h-13.902a6.525 6.525 0 01-.568 3.972l-.284.284c-1.702 3.12-5.958 3.404-6.525 3.404h21.562c.851 0 4.823-.283 6.809-3.404.851-1.419 1.419-3.972-.567-7.377z" fill="#108775"/><path d="M106.51 108.97v-.284l.284-.567c.283-1.135.567-2.27.283-3.405l-1.134-3.404-28.938-50.501-4.256-7.66h-.284l-4.256 7.66-28.938 50.5-1.134 3.405a6.81 6.81 0 00.567 4.256c1.135 1.702 2.837 3.405 6.809 3.405h53.906c.851 0 5.107-.284 7.093-3.405zM72.464 58.469l26.386 46.245H46.079z" fill="#2f495e"/></svg><text class="name" x="633" y="27" text-anchor="middle" transform="translate(0 0)">NUXT</text></g>
    <g class="a1"><rect class="card" x="0" y="54" width="140" height="42" rx="4"/><rect class="logoCell" x="0" y="54" width="46" height="42" rx="4"/><path class="cut" d="M46 55V95"/><svg x="9" y="61" width="28" height="28" viewBox="0 0 128 128" preserveAspectRatio="xMidYMid meet" aria-hidden="true"><linearGradient id="angular-a" x1="14.704" x2="110.985" y1="46.27" y2="92.024" gradientTransform="matrix(1 0 0 -1 0 130)" gradientUnits="userSpaceOnUse"><stop offset="0" stop-color="#e40035"/><stop offset=".24" stop-color="#f60a48"/><stop offset=".352" stop-color="#f20755"/><stop offset=".494" stop-color="#dc087d"/><stop offset=".745" stop-color="#9717e7"/><stop offset="1" stop-color="#6c00f5"/></linearGradient><path fill="url(#angular-a)" d="m124.5 21.3-4.4 68.6L78.3 0l46.2 21.3zm-29 88.7L64 128l-31.5-18 6.4-15.5h50.3l6.3 15.5zM64 34.1l16.5 40.2h-33L64 34.1zM7.9 89.9 3.5 21.3 49.7 0 7.9 89.9z"/><linearGradient id="angular-b" x1="28.733" x2="91.742" y1="117.071" y2="45.195" gradientTransform="matrix(1 0 0 -1 0 130)" gradientUnits="userSpaceOnUse"><stop offset="0" stop-color="#ff31d9"/><stop offset="1" stop-color="#ff5be1" stop-opacity="0"/></linearGradient><path fill="url(#angular-b)" d="m124.5 21.3-4.4 68.6L78.3 0l46.2 21.3zm-29 88.7L64 128l-31.5-18 6.4-15.5h50.3l6.3 15.5zM64 34.1l16.5 40.2h-33L64 34.1zM7.9 89.9 3.5 21.3 49.7 0 7.9 89.9z"/></svg><text class="name" x="93" y="27" text-anchor="middle" transform="translate(0 54)">ANGULAR</text></g>
    <g class="a2"><rect class="card" x="148" y="54" width="128" height="42" rx="4"/><rect class="logoCell" x="148" y="54" width="46" height="42" rx="4"/><path class="cut" d="M194 55V95"/><svg x="157" y="61" width="28" height="28" viewBox="0 0 128 128" preserveAspectRatio="xMidYMid meet" aria-hidden="true"><path d="M 110.43093,16.935847 C 98.552474,-0.076153 75.089104,-5.118154 58.130818,5.695846 l -29.793,19.000001 c -4.030441,2.529 -7.488786,5.871 -10.15468,9.814 -2.665895,3.943 -4.479469,8.399 -5.325138,13.083 a 25.478172,30.64 0 0 0 -0.572094,6.396 c 0.0183,5.831 1.446866,11.571 4.163485,16.729995 -2.546986,3.87201 -4.285721,8.22 -5.110602,12.78201 a 25.347621,30.483 0 0 0 0.345086,14.41199 c 1.072679,4.732998 3.078336,9.203998 5.900559,13.151998 11.877618,17.011 35.393374,22.053 52.299272,11.24 l 29.762238,-19.001 c 4.027946,-2.532 7.482126,-5.877998 10.141386,-9.824998 2.65841,-3.947 4.46282,-8.40699 5.29686,-13.093 0.3825,-2.107 0.57458,-4.244 0.5721,-6.386 -0.007,-5.81999 -1.41778,-11.550995 -4.11194,-16.708995 2.54616,-3.869 4.28489,-8.213 5.11143,-12.771 0.36921,-2.109 0.55713,-4.245 0.56212,-6.386 0.002,-7.595 -2.37152,-15 -6.78697,-21.178 z" fill="#ff3e00" id="svelte-path598" style="stroke-width:0.911885" /><path d="m 55.218941,112.66204 a 28.463375,34.23 0 0 1 -5.953776,0.76 c -3.820895,0.001 -7.585244,-0.925 -10.970416,-2.7 -3.384341,-1.774 -6.288887,-4.343 -8.464177,-7.487 -2.655917,-3.716 -4.082827,-8.171 -4.080332,-12.74 a 15.657767,18.83 0 0 1 0.332613,-3.833 15.424937,18.55 0 0 1 0.719276,-2.782 l 0.562116,-1.708 1.51921,1.156 c 3.528195,2.591 7.470493,4.564 11.658097,5.834 l 1.104275,0.333 -0.103941,1.104 v 0.573 c -0.0025,1.381 0.427408,2.73 1.228174,3.854 0.646933,0.958 1.51838,1.744 2.537839,2.288 a 8.2621121,9.936 0 0 0 3.311997,0.837 8.2513022,9.923 0 0 0 1.79029,-0.229 7.2717563,8.745 0 0 0 1.832699,-0.802 l 29.760566,-19.094 c 0.892236,-0.566 1.627311,-1.349 2.135377,-2.276 0.507236,-0.927 0.771662,-1.968 0.768337,-3.026 -0.0084,-1.381 -0.449027,-2.725 -1.259773,-3.844 -0.656912,-0.946 -1.533347,-1.718 -2.553637,-2.252 a 8.3128357,9.997 0 0 0 -3.307008,-0.81 8.246313,9.917 0 0 0 -1.79029,0.23 6.9383115,8.344 0 0 0 -1.821058,0.801 l -11.346268,7.25 a 24.375558,29.314 0 0 1 -6.04774,2.656 c -1.945787,0.502 -3.945624,0.758 -5.954608,0.76 -3.820063,0 -7.582749,-0.926 -10.967089,-2.698 -3.384341,-1.772 -6.289718,-4.338 -8.467502,-7.478 -2.652591,-3.718 -4.079502,-8.172 -4.080334,-12.74 0.0016,-1.285 0.113089,-2.567 0.332615,-3.833 0.509728,-2.816 1.597374,-5.495 3.196411,-7.867 1.598207,-2.373 3.67205,-4.387 6.089317,-5.914 l 29.792168,-18.99 c 1.869286,-1.19 3.908205,-2.09 6.04774,-2.667 1.945787,-0.499 3.945625,-0.75 5.953776,-0.75 3.82921,-0.01 7.603538,0.91 10.999519,2.681 3.395981,1.77 6.311338,4.34 8.497439,7.486 2.636787,3.727 4.045417,8.184 4.028777,12.75 a 15.748404,18.939 0 0 1 -0.33344,3.844 15.407475,18.529 0 0 1 -0.71845,2.781 l -0.56211,1.708 -1.519216,-1.114 c -3.525699,-2.595 -7.468833,-4.568 -11.658096,-5.834 l -1.104275,-0.343 0.103941,-1.105 v -0.572 c 0,-1.385 -0.429072,-2.735 -1.228174,-3.865 -0.65608,-0.945 -1.530022,-1.716 -2.549481,-2.25 a 8.3086779,9.992 0 0 0 -3.301186,-0.813 8.2213671,9.887 0 0 0 -1.768671,0.271 6.8185708,8.2 0 0 0 -1.831867,0.802 l -29.792165,18.99 a 5.8797701,7.071 0 0 0 -1.836857,1.79 4.7505482,5.713 0 0 0 -0.962914,2.377 5.0365955,6.057 0 0 0 -0.135541,1.104 c -8.31e-4,1.378 0.42824,2.722 1.228174,3.844 0.655248,0.945 1.530021,1.717 2.548649,2.25 a 8.2986996,9.98 0 0 0 3.301186,0.812 8.2471446,9.918 0 0 0 1.79029,-0.23 6.9433007,8.35 0 0 0 1.832699,-0.801 l 11.367057,-7.292 a 24.218399,29.125 0 0 1 6.04774,-2.656 28.52574,34.305 0 0 1 5.953776,-0.76 c 3.821727,0 7.586076,0.925 10.972078,2.697 3.386003,1.772 6.293877,4.339 8.473325,7.48 2.652591,3.717 4.079498,8.171 4.080338,12.74 0.003,1.299 -0.11226,2.596 -0.34343,3.874 -0.506403,2.817 -1.594046,5.497 -3.192254,7.87 -1.599037,2.372 -3.673715,4.385 -6.093476,5.911 l -29.739779,18.99 a 24.308205,29.233 0 0 1 -6.057719,2.667 z" fill="#ffffff" id="svelte-path600" style="stroke-width:0.911885" /></svg><text class="name" x="235" y="27" text-anchor="middle" transform="translate(0 54)">SVELTE</text></g>
    <g class="a3"><rect class="card" x="284" y="54" width="144" height="42" rx="4"/><rect class="logoCell" x="284" y="54" width="46" height="42" rx="4"/><path class="cut" d="M330 55V95"/><svg x="293" y="61" width="28" height="28" viewBox="0 0 128 128" preserveAspectRatio="xMidYMid meet" aria-hidden="true"><path d="M 110.43093,16.935847 C 98.552474,-0.076153 75.089104,-5.118154 58.130818,5.695846 l -29.793,19.000001 c -4.030441,2.529 -7.488786,5.871 -10.15468,9.814 -2.665895,3.943 -4.479469,8.399 -5.325138,13.083 a 25.478172,30.64 0 0 0 -0.572094,6.396 c 0.0183,5.831 1.446866,11.571 4.163485,16.729995 -2.546986,3.87201 -4.285721,8.22 -5.110602,12.78201 a 25.347621,30.483 0 0 0 0.345086,14.41199 c 1.072679,4.732998 3.078336,9.203998 5.900559,13.151998 11.877618,17.011 35.393374,22.053 52.299272,11.24 l 29.762238,-19.001 c 4.027946,-2.532 7.482126,-5.877998 10.141386,-9.824998 2.65841,-3.947 4.46282,-8.40699 5.29686,-13.093 0.3825,-2.107 0.57458,-4.244 0.5721,-6.386 -0.007,-5.81999 -1.41778,-11.550995 -4.11194,-16.708995 2.54616,-3.869 4.28489,-8.213 5.11143,-12.771 0.36921,-2.109 0.55713,-4.245 0.56212,-6.386 0.002,-7.595 -2.37152,-15 -6.78697,-21.178 z" fill="#ff3e00" id="svelte-path598" style="stroke-width:0.911885" /><path d="m 55.218941,112.66204 a 28.463375,34.23 0 0 1 -5.953776,0.76 c -3.820895,0.001 -7.585244,-0.925 -10.970416,-2.7 -3.384341,-1.774 -6.288887,-4.343 -8.464177,-7.487 -2.655917,-3.716 -4.082827,-8.171 -4.080332,-12.74 a 15.657767,18.83 0 0 1 0.332613,-3.833 15.424937,18.55 0 0 1 0.719276,-2.782 l 0.562116,-1.708 1.51921,1.156 c 3.528195,2.591 7.470493,4.564 11.658097,5.834 l 1.104275,0.333 -0.103941,1.104 v 0.573 c -0.0025,1.381 0.427408,2.73 1.228174,3.854 0.646933,0.958 1.51838,1.744 2.537839,2.288 a 8.2621121,9.936 0 0 0 3.311997,0.837 8.2513022,9.923 0 0 0 1.79029,-0.229 7.2717563,8.745 0 0 0 1.832699,-0.802 l 29.760566,-19.094 c 0.892236,-0.566 1.627311,-1.349 2.135377,-2.276 0.507236,-0.927 0.771662,-1.968 0.768337,-3.026 -0.0084,-1.381 -0.449027,-2.725 -1.259773,-3.844 -0.656912,-0.946 -1.533347,-1.718 -2.553637,-2.252 a 8.3128357,9.997 0 0 0 -3.307008,-0.81 8.246313,9.917 0 0 0 -1.79029,0.23 6.9383115,8.344 0 0 0 -1.821058,0.801 l -11.346268,7.25 a 24.375558,29.314 0 0 1 -6.04774,2.656 c -1.945787,0.502 -3.945624,0.758 -5.954608,0.76 -3.820063,0 -7.582749,-0.926 -10.967089,-2.698 -3.384341,-1.772 -6.289718,-4.338 -8.467502,-7.478 -2.652591,-3.718 -4.079502,-8.172 -4.080334,-12.74 0.0016,-1.285 0.113089,-2.567 0.332615,-3.833 0.509728,-2.816 1.597374,-5.495 3.196411,-7.867 1.598207,-2.373 3.67205,-4.387 6.089317,-5.914 l 29.792168,-18.99 c 1.869286,-1.19 3.908205,-2.09 6.04774,-2.667 1.945787,-0.499 3.945625,-0.75 5.953776,-0.75 3.82921,-0.01 7.603538,0.91 10.999519,2.681 3.395981,1.77 6.311338,4.34 8.497439,7.486 2.636787,3.727 4.045417,8.184 4.028777,12.75 a 15.748404,18.939 0 0 1 -0.33344,3.844 15.407475,18.529 0 0 1 -0.71845,2.781 l -0.56211,1.708 -1.519216,-1.114 c -3.525699,-2.595 -7.468833,-4.568 -11.658096,-5.834 l -1.104275,-0.343 0.103941,-1.105 v -0.572 c 0,-1.385 -0.429072,-2.735 -1.228174,-3.865 -0.65608,-0.945 -1.530022,-1.716 -2.549481,-2.25 a 8.3086779,9.992 0 0 0 -3.301186,-0.813 8.2213671,9.887 0 0 0 -1.768671,0.271 6.8185708,8.2 0 0 0 -1.831867,0.802 l -29.792165,18.99 a 5.8797701,7.071 0 0 0 -1.836857,1.79 4.7505482,5.713 0 0 0 -0.962914,2.377 5.0365955,6.057 0 0 0 -0.135541,1.104 c -8.31e-4,1.378 0.42824,2.722 1.228174,3.844 0.655248,0.945 1.530021,1.717 2.548649,2.25 a 8.2986996,9.98 0 0 0 3.301186,0.812 8.2471446,9.918 0 0 0 1.79029,-0.23 6.9433007,8.35 0 0 0 1.832699,-0.801 l 11.367057,-7.292 a 24.218399,29.125 0 0 1 6.04774,-2.656 28.52574,34.305 0 0 1 5.953776,-0.76 c 3.821727,0 7.586076,0.925 10.972078,2.697 3.386003,1.772 6.293877,4.339 8.473325,7.48 2.652591,3.717 4.079498,8.171 4.080338,12.74 0.003,1.299 -0.11226,2.596 -0.34343,3.874 -0.506403,2.817 -1.594046,5.497 -3.192254,7.87 -1.599037,2.372 -3.673715,4.385 -6.093476,5.911 l -29.739779,18.99 a 24.308205,29.233 0 0 1 -6.057719,2.667 z" fill="#ffffff" id="svelte-path600" style="stroke-width:0.911885" /></svg><text class="name" x="379" y="27" text-anchor="middle" transform="translate(0 54)">SVELTEKIT</text></g>
    <g class="a4"><rect class="card" x="436" y="54" width="118" height="42" rx="4"/><rect class="logoCell" x="436" y="54" width="46" height="42" rx="4"/><path class="cut" d="M482 55V95"/><svg x="445" y="61" width="28" height="28" viewBox="0 0 128 128" preserveAspectRatio="xMidYMid meet" aria-hidden="true"><defs><linearGradient id="astro-a" x1="882.997" x2="638.955" y1="27.113" y2="866.902" gradientTransform="scale(.1)" gradientUnits="userSpaceOnUse"><stop offset="0" stop-color="#000014"/><stop offset="1" stop-color="#150426"/></linearGradient><linearGradient id="astro-b" x1="1001.68" x2="790.326" y1="652.45" y2="1094.91" gradientTransform="scale(.1)" gradientUnits="userSpaceOnUse"><stop offset="0" stop-color="#ff1639"/><stop offset="1" stop-color="#ff1639" stop-opacity="0"/></linearGradient></defs><path fill="url(#astro-a)" d="M81.504 9.465c.973 1.207 1.469 2.836 2.457 6.09l21.656 71.136a90.079 90.079 0 0 0-25.89-8.765L65.629 30.28a1.833 1.833 0 0 0-3.52.004L48.18 77.902a90.104 90.104 0 0 0-26.003 8.778l21.758-71.14c.996-3.25 1.492-4.876 2.464-6.083a8.023 8.023 0 0 1 3.243-2.398c1.433-.575 3.136-.575 6.535-.575H71.72c3.402 0 5.105 0 6.543.579a7.988 7.988 0 0 1 3.242 2.402Zm0 0"/><path fill="#ff5d01" d="M84.094 90.074c-3.57 3.055-10.696 5.137-18.903 5.137-10.07 0-18.515-3.137-20.754-7.356-.8 2.418-.98 5.184-.98 6.954 0 0-.527 8.675 5.508 14.71a5.671 5.671 0 0 1 5.672-5.671c5.37 0 5.367 4.683 5.363 8.488v.336c0 5.773 3.527 10.719 8.543 12.805a11.62 11.62 0 0 1-1.172-5.098c0-5.508 3.23-7.555 6.988-9.938 2.989-1.894 6.309-4 8.594-8.222a15.513 15.513 0 0 0 1.875-7.41 15.55 15.55 0 0 0-.734-4.735Zm0 0"/><path fill="url(#astro-b)" d="M84.094 90.074c-3.57 3.055-10.696 5.137-18.903 5.137-10.07 0-18.515-3.137-20.754-7.356-.8 2.418-.98 5.184-.98 6.954 0 0-.527 8.675 5.508 14.71a5.671 5.671 0 0 1 5.672-5.671c5.37 0 5.367 4.683 5.363 8.488v.336c0 5.773 3.527 10.719 8.543 12.805a11.62 11.62 0 0 1-1.172-5.098c0-5.508 3.23-7.555 6.988-9.938 2.989-1.894 6.309-4 8.594-8.222a15.513 15.513 0 0 0 1.875-7.41 15.55 15.55 0 0 0-.734-4.735Zm0 0"/></svg><text class="name" x="518" y="27" text-anchor="middle" transform="translate(0 54)">ASTRO</text></g>
    <g class="a5"><rect class="card" x="562" y="54" width="120" height="42" rx="4"/><rect class="logoCell" x="562" y="54" width="46" height="42" rx="4"/><path class="cut" d="M608 55V95"/><svg x="571" y="61" width="28" height="28" viewBox="0 0 128 128" preserveAspectRatio="xMidYMid meet" aria-hidden="true"><path fill="#121212" d="M8.389 0v26.09h55.445c14.656 0 21.986 6.29 21.986 16.67 0 11.804-7.33 16.263-21.986 16.263H8.389v26.663h53.818c11.603 0 17.912 3.255 18.93 17.91.77 10.01.674 14.965.582 19.718-.03 1.53-.06 3.038-.06 4.686h34.218c0-7.567 0-14.5-1.15-29.29-1.425-14.857-9.161-22.386-22.393-25.032 15.674-2.036 27.277-14.248 27.277-32.973C119.611 15.671 103.122 0 69.941 0zm0 108.125V128h43.535v-12.72c0-2.674-1.312-7.155-7.356-7.155z"/></svg><text class="name" x="645" y="27" text-anchor="middle" transform="translate(0 54)">REMIX</text></g>
    <g class="a1"><rect class="card" x="0" y="108" width="142" height="42" rx="4"/><rect class="logoCell" x="0" y="108" width="46" height="42" rx="4"/><path class="cut" d="M46 109V149"/><svg x="9" y="115" width="28" height="28" viewBox="0 0 128 128" preserveAspectRatio="xMidYMid meet" aria-hidden="true"><path d="M126.67 98.44c-4.56 1.16-7.38.05-9.91-3.75-5.68-8.51-11.95-16.63-18-24.9-.78-1.07-1.59-2.12-2.6-3.45C89 76 81.85 85.2 75.14 94.77c-2.4 3.42-4.92 4.91-9.4 3.7l26.92-36.13L67.6 29.71c4.31-.84 7.29-.41 9.93 3.45 5.83 8.52 12.26 16.63 18.67 25.21 6.45-8.55 12.8-16.67 18.8-25.11 2.41-3.42 5-4.72 9.33-3.46-3.28 4.35-6.49 8.63-9.72 12.88-4.36 5.73-8.64 11.53-13.16 17.14-1.61 2-1.35 3.3.09 5.19C109.9 76 118.16 87.1 126.67 98.44zM1.33 61.74c.72-3.61 1.2-7.29 2.2-10.83 6-21.43 30.6-30.34 47.5-17.06C60.93 41.64 63.39 52.62 62.9 65H7.1c-.84 22.21 15.15 35.62 35.53 28.78 7.15-2.4 11.36-8 13.47-15 1.07-3.51 2.84-4.06 6.14-3.06-1.69 8.76-5.52 16.08-13.52 20.66-12 6.86-29.13 4.64-38.14-4.89C5.26 85.89 3 78.92 2 71.39c-.15-1.2-.46-2.38-.7-3.57q.03-3.04.03-6.08zm5.87-1.49h50.43c-.33-16.06-10.33-27.47-24-27.57-15-.12-25.78 11.02-26.43 27.57z"/></svg><text class="name" x="94" y="27" text-anchor="middle" transform="translate(0 108)">EXPRESS</text></g>
    <g class="a2"><rect class="card" x="150" y="108" width="126" height="42" rx="4"/><rect class="logoCell" x="150" y="108" width="46" height="42" rx="4"/><path class="cut" d="M196 109V149"/><svg x="159" y="115" width="28" height="28" viewBox="0 0 128 128" preserveAspectRatio="xMidYMid meet" aria-hidden="true"><path fill="#df234f" d="M75.323.4c-.898 0-1.796.199-2.594.498 1.696 1.098 2.594 2.594 3.093 4.29 0 .2.1.4.1.599 0 .2.1.399.1.598.1 2.894-.799 3.293-1.397 4.989-.998 2.194-.698 4.589.499 6.484.1.2.2.5.399.699-1.297-8.38 5.686-9.578 6.983-12.172.1-2.294-1.795-3.79-3.292-4.888C77.718.599 76.52.399 75.324.399ZM85.8 2.194c-.1.798 0 .599-.1.998 0 .299 0 .598-.1.898-.1.299-.1.499-.2.798-.1.3-.199.499-.299.798-.1.2-.2.399-.3.698-.099.1-.199.3-.298.4-.1.1-.1.199-.2.299-.2.2-.3.498-.499.698l-.598.599c-.2.2-.4.399-.599.498-.698.5-1.496.898-2.195 1.397-.2.2-.499.3-.698.499-.2.2-.4.3-.599.499l-.598.598c-.2.2-.4.4-.5.699-.199.2-.299.499-.498.698-.1.3-.2.499-.399.798-.1.3-.2.5-.3.798-.1.3-.199.599-.199.798 0 .1 0 .3-.1.4 0 .1 0 .299-.1.399v1.396c0 .3 0 .5.1.798 0 .3.1.5.2.799s.2.498.3.798c.099.2.199.299.199.499l-7.583-2.894a53.157 53.157 0 0 0-3.79-.997c-.699-.2-1.397-.3-2.096-.5a61.927 61.927 0 0 0-5.986-.897h-.2c-1.995-.2-3.89-.3-5.885-.3-1.497 0-2.894.1-4.29.2-1.996.1-3.99.4-5.986.699l-1.497.299c-.997.2-1.995.399-2.993.698-.499.1-.997.3-1.496.4-.499.199-.998.398-1.397.598-.399.2-.698.3-1.097.499-.1 0-.1 0-.2.1-.3.199-.598.299-.898.498-.1 0-.2.1-.2.1-.398.2-.698.4-.997.499-.2.1-.499.2-.698.3-.1.099-.2.099-.3.199-.299.2-.598.299-.898.498-.299.2-.598.3-.798.5-.2.199-.499.299-.698.498 0 0-.1 0-.1.1-.2.1-.399.3-.598.499l-.1.1c-.2.1-.3.299-.499.399-.1 0-.1.1-.2.1-.199.1-.299.299-.498.398 0 .1-.1.1-.1.1l-.599.599-.1.1-.598.598s0 .1-.1.1l-.499.499c-.1.1-.2.1-.2.2l-.598.598c0 .1-.1.1-.1.2l-.798.797-.1.1c-.498.599-1.097 1.098-1.695 1.597-.599.498-1.198.997-1.896 1.496s-1.297.898-1.995 1.297c-.699.399-1.397.698-2.095.998-.699.299-1.397.598-2.095.798-1.397.3-2.794.898-3.991.997 0-.498-.3-.399-.599-.399-.299.1-.598.1-.798.2-.3.1-.499.2-.798.3a2.96 2.96 0 0 0-.798.398c-.2.2-.499.3-.698.5-.2.199-.5.398-.699.598-.2.2-.499.399-.698.598-.2.2-.4.4-.599.699-.2.299-.399.498-.499.798-.199.2-.299.499-.498.798-.1.3-.3.598-.4.898l-.299.898c-.1.299-.1.498-.2.798v.1c-.1.3-.1.698-.1.898.1-.1.1.1.1.299v.399c0 .2.1.399.1.598.1.2.1.4.2.599.099.2.199.399.398.599.1.2.3.399.4.598.199.2.398.4.598.499.2.2.399.4.598.499.798.698.998.898 1.996 1.496.2.1.299.2.499.3h.1v.2c0 .298.1.498.199.797.1.3.2.599.3.798l.298.599c0 .1.1.1.1.2.1.299.3.498.4.698.199.2.299.499.498.698l.599.599.598.598h.1c.2.2.399.3.599.5s.499.299.698.398c.2.1.499.3.798.4.2.1.4.199.698.199 0 0 .1 0 .1.1.1 0 .3.1.4.1-.1 1.795-.1 3.491.1 4.09.298.698 1.795-1.397 3.192-3.691-.2 2.294-.3 4.988 0 5.786.399.798 2.294-1.796 4.09-4.59 23.345-5.387 44.695 10.775 46.99 33.622-.4-3.592-4.79-5.587-6.884-5.088-.998 2.394-2.694 5.587-5.387 7.482.199-2.195.1-4.39-.3-6.584-.698 2.993-2.095 5.886-4.09 8.28-3.093.2-6.285-1.297-7.882-3.591-.1-.1-.2-.3-.299-.4-.1-.199-.2-.498-.3-.698-.1-.2-.199-.499-.199-.698v-1.197c0-.2.1-.5.2-.699s.1-.499.2-.698c.099-.2.199-.499.398-.698.599-1.597.599-2.894-.499-3.592l-.598-.3c-.1 0-.3-.099-.4-.099s-.199-.1-.299-.1c-.199-.1-.498-.1-.698-.2-.2-.1-.499-.1-.698-.1-.2 0-.5-.099-.699-.099h-.498c-.3 0-.5 0-.699.1-.2 0-.499.1-.698.1-.2.1-.499.1-.699.2-.199.099-.399.199-.698.298l-.599.3c-7.682 4.988-3.092 16.76 2.096 20.152-1.996.4-3.991.798-4.59 1.198l-.1.1c1.397.897 2.894 1.596 4.49 2.194 2.095.699 4.39 1.297 5.387 1.597 2.694.598 5.488.798 8.281.598 14.566-.998 26.538-12.171 28.732-26.737.1.3.1.598.2.898.1.598.2 1.197.3 1.895.1.3.1.599.1.898v.1c0 .3.099.599.099.898 0 .399.1.698.1 1.097v4.19c0 .3-.1.5-.1.799v.299c0 .3-.1.599-.1.998-.1.299-.1.598-.2.898v.1c-.1.299-.1.598-.199.897v.1c-.1.3-.1.599-.2.898v.1l-.299.898v.1c-.1.299-.2.698-.299.997-.1.3-.2.599-.4.998-.099.299-.199.698-.398.997-.1.3-.3.599-.4.998-.099.3-.299.599-.398.898 0 .1-.1.2-.1.2s0 .1-.1.1c-2.095 4.289-5.287 8.08-9.278 11.073-.3.2-.499.4-.798.599-.1.1-.2.1-.2.2-.2.199-.499.299-.698.498l.1.2c.498-.1.898-.1 1.396-.2.898-.1 1.696-.3 2.594-.499.2 0 .5-.1.699-.2.2 0 .299-.1.498-.1s.5-.099.699-.099c.2-.1.399-.1.598-.2 3.293-.797 6.485-1.895 9.578-3.192-5.288 7.183-12.271 12.97-20.452 16.76 3.791-.299 7.582-.897 11.273-1.995a52.469 52.469 0 0 0 31.127-24.941c-1.396 7.582-4.39 14.865-8.879 21.25 3.193-2.095 6.086-4.59 8.78-7.283 7.382-7.682 12.27-17.559 13.867-28.034 1.098 5.188 1.497 10.575.998 15.863 23.844-33.222 1.995-67.641-7.183-76.72 0-.1-.1-.1-.1-.2 0 .4 0 .798-.1 1.198-.1.798-.2 1.496-.3 2.194-.199.699-.398 1.497-.598 2.195-.2.699-.499 1.397-.798 2.095-.3.699-.599 1.397-.998 1.996s-.798 1.297-1.197 1.895c-.399.599-.898 1.197-1.397 1.796-.498.599-.997 1.097-1.596 1.696-.3.3-.598.599-.997.798-.3.2-.5.4-.799.698-.598.5-1.197.898-1.895 1.297-.599.4-1.297.799-1.995 1.098l-2.096.898c-.698.299-1.396.499-2.095.698-.698.2-1.496.4-2.195.499-.798.1-1.496.2-2.194.3-.5 0-1.098.099-1.597.099-.798 0-1.496-.1-2.194-.1-.799-.1-1.497-.2-2.195-.3a7.874 7.874 0 0 1-2.195-.598c.698-.1 1.496-.1 2.195-.299.798-.1 1.496-.3 2.195-.499.698-.2 1.496-.399 2.095-.698l2.095-.898c.698-.3 1.297-.698 1.995-1.097.599-.4 1.297-.898 1.896-1.297.598-.5 1.197-.998 1.696-1.497.598-.499 1.097-1.097 1.596-1.596.499-.599.998-1.197 1.397-1.796.1-.1.1-.2.2-.3.298-.498.697-1.097.997-1.595a18.56 18.56 0 0 0 .997-1.996c.3-.698.6-1.397.799-2.095l.598-2.095c.1-.798.3-1.496.3-2.195.1-.798.1-1.496.1-2.195 0-.498 0-1.097-.1-1.596-.1-.798-.2-1.496-.3-2.195-.1-.798-.3-1.496-.499-2.195-.2-.698-.499-1.396-.698-2.095-.3-.698-.599-1.396-.898-1.995-.399-.698-.698-1.297-1.097-1.995-.4-.599-.898-1.198-1.297-1.796-.499-.599-.998-1.098-1.497-1.696-.299-.3-.598-.599-.898-.798-1.496-1.197-2.993-2.195-4.589-3.193-.2-.1-.399-.2-.698-.3-1.297-1.096-2.295-1.396-3.292-1.795Z"/></svg><text class="name" x="236" y="27" text-anchor="middle" transform="translate(0 108)">NESTJS</text></g>
    <g class="a3"><rect class="card" x="284" y="108" width="138" height="42" rx="4"/><rect class="logoCell" x="284" y="108" width="46" height="42" rx="4"/><path class="cut" d="M330 109V149"/><svg x="293" y="115" width="28" height="28" viewBox="0 0 128 128" preserveAspectRatio="xMidYMid meet" aria-hidden="true"><path d="m89.663 24.816-.162-.253-.001.001-.006.004a.513.513 0 0 1-.026.016l-.103.064a60.12 60.12 0 0 1-1.901 1.121 69.437 69.437 0 0 1-5.182 2.645c-4.196 1.919-9.503 3.791-14.045 3.691-2.294-.051-4.2-.242-5.997-.431l-.294-.031c-1.686-.178-3.294-.347-5.041-.384-3.707-.078-8.022.443-15.121 2.707-7.158 2.282-11.743 6.925-15.043 11.348-1.281 1.717-2.374 3.407-3.345 4.911-.278.43-.546.845-.806 1.241-1.18 1.797-2.17 3.17-3.143 3.876-2.054 1.489-6.299 4.657-10.029 7.45a4307.818 4307.818 0 0 0-4.874 3.656L3.03 67.586l-.415.313-.108.082-.028.021-.007.005-.002.001.134.178-.134-.177-.145.109.029.179.028.172.056.343.331-.105 10.46-3.331c-.395.422-.931 1.01-1.611 1.792-1.614 1.858-4.039 4.81-7.323 9.223a3.526 3.526 0 0 1-.071-.066l-.664-.611.167.886.012.064.011.059.033.05.073-.048-.073.048.001.002.003.005.012.019.048.072a24.262 24.262 0 0 0 .882 1.198 24.062 24.062 0 0 0 2.483 2.721c1.026.954 2.232 1.872 3.533 2.453 1.303.582 2.717.834 4.138.425h.001c.52-.152 1.094-.39 1.709-.697 2.15 1.181 4.939 2.332 8.02 2.654l.751.079-.492-.573-.001-.001-.004-.005a.245.245 0 0 0-.018-.02l-.068-.081a54.757 54.757 0 0 1-1.165-1.444 47.48 47.48 0 0 1-2.4-3.368l.833-.541 4.288 1.576.458.168-.057-.485-.436-3.716 3.933 1.445.471.173-.071-.497-.509-3.568c.485-.25.965-.487 1.445-.708l.131-.059.036-.137 4.498-17.014 17.815-12.152-1.125 2.83v.001c-1.875 4.61-4.568 7.452-6.786 9.141a16.783 16.783 0 0 1-2.813 1.747 11.248 11.248 0 0 1-1.059.449l-.056.019-.005.002a.069.069 0 0 0-.008.003l-.003.001-.009.003-.009.003-2.975 1.128-.073.026-.05.059-.345.405c-.926 1.084-1.643 1.923-2.202 3.389-.621 1.628-1.046 4.02-1.425 8.409l-.036.419.408-.103c1.753-.44 3.402-.539 4.879-.141 3.893 1.049 6.525 3.923 7.92 6.876.697 1.476 1.08 2.961 1.159 4.231.08 1.282-.152 2.293-.622 2.874-.509.629-1.733 1.721-3.318 3.035h-3.433l-.005.295-.042 2.487-.002.002-.138.107h-3.493l-.005.295-.038 2.422-.416.313-.252.19c-1.454.002-3.115-.618-4.447-1.268a21.133 21.133 0 0 1-2.146-1.211 4.868 4.868 0 0 1-.127-.084l-.032-.022-.006-.004-.001-.001-.002-.001-.47-.323v.571c0 1.295.534 2.905 1.048 4.164a27.627 27.627 0 0 0 .949 2.06l.002.003-.123.088.262.175.085.157.089-.042.024.016.277.175a31.893 31.893 0 0 0 4.483 2.301c1.378.569 2.931 1.078 4.477 1.314 1.544.236 3.102.201 4.476-.338 1.192-.467 2.838-1.417 4.781-2.632 1.336-.835 2.823-1.804 4.413-2.839.729-.475 1.479-.963 2.246-1.459 4.885-3.159 10.465-6.638 15.63-8.874l31.427-8.279.148-.039.055-.143 4.147-10.744.211-.547-.567.15-23.591 6.215V65.12l27.898-7.35.148-.039.055-.143 4.147-10.744.211-.547-.567.15L85.4 54.848v-9.032l36.183-9.534.148-.039.055-.143 3.863-10.004.035-.092-.026-.095-.168-.62-.078-.287-.288.076-37.453 9.868c1.73-2.73 2.328-5.184 2.48-7.005.082-.982.033-1.778-.037-2.332a7.645 7.645 0 0 0-.147-.814 2.191 2.191 0 0 0-.012-.046l-.004-.013-.001-.004v-.001l-.287.085zm0 0-.162-.253.336-.214.113.382-.287.085zm-.288.085c0-.001 0-.001 0 0zM64.657 56.695l7.017-1.85-2.232 5.783-7.017 1.85 2.232-5.783zm4.357 6.619-2.232 5.787-7.017 1.851 2.233-5.788 7.016-1.85zm10.077-2.163-2.232 5.787-7.017 1.851 2.233-5.788 7.016-1.85z"/><path fill="#fff" d="M43.745 104.119a11.71 11.71 0 0 1-1.774-.142c-1.386-.211-2.916-.66-4.546-1.333a32.38 32.38 0 0 1-4.528-2.324l-.164-.103-.196.093-.184-.342-.562-.374.267-.19-.122-.246c-.179-.367-.45-.944-.721-1.609-.71-1.738-1.07-3.178-1.07-4.277V92.13l.978.673.124.082a20.545 20.545 0 0 0 2.114 1.193c1.133.553 2.773 1.21 4.216 1.237l.076-.057.095-.072.299-.224.045-2.866h3.631l.048-2.891h3.621c1.674-1.39 2.748-2.374 3.193-2.924.426-.527.628-1.5.556-2.667-.08-1.282-.481-2.746-1.131-4.121a13.298 13.298 0 0 0-2.956-4.06 11.313 11.313 0 0 0-4.772-2.655c-1.351-.364-2.897-.317-4.728.142l-.816.206.073-.839c.374-4.321.792-6.781 1.444-8.49.577-1.514 1.317-2.38 2.254-3.477l.089-.105.254-.299.101-.119.144-.055 2.994-1.135.031-.01.049-.016a11.163 11.163 0 0 0 1.026-.436 16.436 16.436 0 0 0 2.762-1.716 19.518 19.518 0 0 0 3.469-3.422c1.282-1.621 2.359-3.484 3.2-5.539v-.007l.024-.052.76-1.912-16.915 11.537-4.469 16.906-.072.274-.258.118c-.397.183-.805.381-1.243.604l.622 4.35-4.418-1.623.493 4.2-5.064-1.861-.456.296a47.135 47.135 0 0 0 2.222 3.095c.388.499.704.888.901 1.126.11.134.198.238.257.309l.073.086a.055.055 0 0 1 .007.009l.08.078v.016l.913 1.062-1.502-.158c-2.609-.273-5.298-1.153-7.996-2.615a10.37 10.37 0 0 1-1.593.639l-.027.008a.126.126 0 0 1-.01.003l-.03.009c-1.345.376-2.792.225-4.304-.45-1.175-.525-2.391-1.368-3.615-2.507a24.84 24.84 0 0 1-3.221-3.698l-.087-.124-.006.004-.159-.244-.052-.069v-.011l-.019-.028-.033-.181-.331-1.775 1.155 1.062c3.307-4.431 5.702-7.32 7.138-8.973.296-.34.581-.664.855-.968L2.86 68.992l-.663.21L2 67.987l.435-.327.193-.145.79-.594.948-.712c1.145-.86 2.92-2.192 4.874-3.656 3.399-2.546 7.899-5.905 10.033-7.453.912-.661 1.886-1.996 3.068-3.797.259-.395.528-.811.805-1.239.97-1.501 2.069-3.201 3.356-4.927 1.971-2.642 3.975-4.778 6.126-6.531a27.551 27.551 0 0 1 9.067-4.924c6.269-2 10.82-2.813 15.218-2.721 1.76.037 3.366.206 5.066.386l.294.031c1.957.206 3.757.38 5.972.429 2.044.045 4.421-.317 7.063-1.077 2.132-.613 4.437-1.484 6.851-2.587a70 70 0 0 0 5.159-2.633 56.431 56.431 0 0 0 1.962-1.16l.072-.046.66-.421.311 1.052-.015.004c.029.14.069.356.104.634.095.753.108 1.559.038 2.394-.182 2.191-.9 4.374-2.137 6.501l37.311-9.83.376 1.382-.07.183-3.973 10.291-.297.078-35.96 9.475v8.412l32.642-8.602-.422 1.095-4.257 11.03-.297.078-27.675 7.292v8.408l23.215-6.115 1.135-.299-.422 1.095-4.257 11.031-.297.078-31.404 8.273c-5.05 2.189-10.465 5.543-15.565 8.842-.732.473-1.45.941-2.145 1.394l-.124.081c-1.575 1.025-3.063 1.994-4.394 2.826-2.262 1.415-3.752 2.234-4.831 2.657-.844.33-1.8.496-2.857.496zM32.944 99.64l.271.171a31.78 31.78 0 0 0 4.439 2.278c1.586.655 3.068 1.091 4.407 1.295 1.674.255 3.128.147 4.321-.321 1.043-.409 2.502-1.213 4.732-2.607 1.327-.83 2.812-1.797 4.385-2.821l.124-.081a706.06 706.06 0 0 1 2.147-1.395c5.129-3.317 10.578-6.691 15.674-8.898l.021-.009.022-.006 31.427-8.279 4.146-10.744-23.967 6.314v-9.649l28.122-7.409 4.147-10.744L85.1 55.237v-9.653l36.407-9.593 3.863-10.004-.168-.619L87.01 35.43l.409-.645c1.423-2.245 2.242-4.556 2.434-6.869.082-.989.026-1.78-.036-2.269a7.475 7.475 0 0 0-.087-.538l-.2.059-.122-.19-.002-.003a.74.74 0 0 0-.043.027l-.034.196-.174-.026-.013-.035-.023.014c-.471.285-.978.581-1.508.88a70.134 70.134 0 0 1-5.204 2.657c-2.441 1.116-4.774 1.997-6.935 2.618-2.7.776-5.137 1.146-7.242 1.1-2.238-.049-4.051-.225-6.021-.432l-.294-.031c-1.687-.178-3.281-.346-5.016-.382-4.328-.091-8.821.714-15.023 2.693-3.268 1.042-6.17 2.618-8.87 4.818-2.112 1.721-4.083 3.822-6.024 6.424-1.276 1.71-2.369 3.401-3.333 4.894-.277.428-.547.846-.807 1.242-1.253 1.909-2.229 3.237-3.218 3.954-2.131 1.545-6.628 4.903-10.025 7.447a4106.538 4106.538 0 0 0-4.873 3.656l-.947.712-.79.594-.192.144-.142.106-.006-.008.03.184 11.557-3.68-.788.84a64.448 64.448 0 0 0-1.603 1.784c-1.459 1.679-3.911 4.638-7.309 9.205l-.198.266-.183-.167v.121l.122.174c.211.298.443.607.689.92.54.688 1.404 1.712 2.451 2.687 1.176 1.094 2.337 1.901 3.451 2.399 1.383.618 2.697.758 3.907.418l.038-.019h.028a10.45 10.45 0 0 0 1.619-.665l.14-.07.138.076c2.648 1.454 5.284 2.333 7.835 2.611v-.078l-.021-.025a49.146 49.146 0 0 1-1.172-1.454 47.155 47.155 0 0 1-2.416-3.39l-.162-.251.251-.162.832-.541.126-.082 4.43 1.628-.493-4.201 4.391 1.613-.54-3.779.19-.098c.518-.267.995-.5 1.457-.714l4.526-17.122 18.717-12.767-1.466 3.687v.009l-.025.053c-.865 2.126-1.977 4.056-3.305 5.734a20.08 20.08 0 0 1-3.576 3.528 17.156 17.156 0 0 1-2.864 1.778 11.676 11.676 0 0 1-1.091.463l-.061.021-.021.007-2.974 1.128-.255.3-.09.105c-.935 1.094-1.61 1.884-2.15 3.301-.63 1.654-1.038 4.067-1.407 8.328 1.932-.485 3.578-.531 5.03-.14a11.92 11.92 0 0 1 5.023 2.793 13.893 13.893 0 0 1 3.091 4.244c.682 1.443 1.103 2.984 1.187 4.34.083 1.334-.161 2.429-.688 3.081-.484.599-1.583 1.605-3.36 3.078l-.083.069H42.36l-.044 2.613-.123.118-.014.007-.02.015-.094.073-.082.064h-3.302l-.04 2.568-.116.088c-.14.106-.279.211-.418.314l-.095.072-.156.117-.08.061h-.107c-.874 0-2.374-.226-4.572-1.299a21.316 21.316 0 0 1-2.178-1.229 6.052 6.052 0 0 1-.131-.087l-.044-.029c0 1.007.355 2.408 1.026 4.05a26.393 26.393 0 0 0 .916 1.995l.006.006.021.047.089.177.009.006.003.006.101.063.029.019zm26.33-28.249 2.499-6.478 7.732-2.038-2.498 6.477-7.733 2.039zm2.948-5.976-1.966 5.097 6.302-1.662 1.966-5.096-6.302 1.661zm7.128 3.813 2.499-6.478 7.732-2.039-2.498 6.477-7.733 2.04zm2.949-5.976-1.966 5.097 6.302-1.662 1.966-5.096-6.302 1.661zm-10.366-.334 2.499-6.474 7.732-2.039-2.499 6.473-7.732 2.04zm2.948-5.972-1.966 5.092 6.302-1.662 1.965-5.092-6.301 1.662z"/></svg><text class="name" x="376" y="27" text-anchor="middle" transform="translate(0 108)">FASTIFY</text></g>
    <g class="a4"><rect class="card" x="430" y="108" width="108" height="42" rx="4"/><rect class="logoCell" x="430" y="108" width="46" height="42" rx="4"/><path class="cut" d="M476 109V149"/><svg x="439" y="115" width="28" height="28" viewBox="0 0 128 128" preserveAspectRatio="xMidYMid meet" aria-hidden="true"><defs><linearGradient id="vitejs-a" x1="6" x2="235" y1="33" y2="344" gradientTransform="translate(0 .937) scale(.3122)" gradientUnits="userSpaceOnUse"><stop offset="0" stop-color="#41d1ff"/><stop offset="1" stop-color="#bd34fe"/></linearGradient><linearGradient id="vitejs-b" x1="194.651" x2="236.076" y1="8.818" y2="292.989" gradientTransform="translate(0 .937) scale(.3122)" gradientUnits="userSpaceOnUse"><stop offset="0" stop-color="#ffea83"/><stop offset=".083" stop-color="#ffdd35"/><stop offset="1" stop-color="#ffa800"/></linearGradient></defs><path fill="url(#vitejs-a)" d="M124.766 19.52 67.324 122.238c-1.187 2.121-4.234 2.133-5.437.024L3.305 19.532c-1.313-2.302.652-5.087 3.261-4.622L64.07 25.187a3.09 3.09 0 0 0 1.11 0l56.3-10.261c2.598-.473 4.575 2.289 3.286 4.594Zm0 0"/><path fill="url(#vitejs-b)" d="M91.46 1.43 48.954 9.758a1.56 1.56 0 0 0-1.258 1.437l-2.617 44.168a1.563 1.563 0 0 0 1.91 1.614l11.836-2.735a1.562 1.562 0 0 1 1.88 1.836l-3.517 17.219a1.562 1.562 0 0 0 1.985 1.805l7.308-2.223c1.133-.344 2.223.652 1.985 1.812l-5.59 27.047c-.348 1.692 1.902 2.614 2.84 1.164l.625-.968 34.64-69.13c.582-1.16-.421-2.48-1.69-2.234l-12.185 2.352a1.558 1.558 0 0 1-1.793-1.965l7.95-27.562A1.56 1.56 0 0 0 91.46 1.43Zm0 0"/></svg><text class="name" x="507" y="27" text-anchor="middle" transform="translate(0 108)">VITE</text></g>
    <g class="a5"><rect class="card" x="546" y="108" width="150" height="42" rx="4"/><rect class="logoCell" x="546" y="108" width="46" height="42" rx="4"/><path class="cut" d="M592 109V149"/><svg x="555" y="115" width="28" height="28" viewBox="0 0 128 128" preserveAspectRatio="xMidYMid meet" aria-hidden="true"><path d="M64.004 25.602c-17.067 0-27.73 8.53-32 25.597 6.398-8.531 13.867-11.73 22.398-9.597 4.871 1.214 8.352 4.746 12.207 8.66C72.883 56.629 80.145 64 96.004 64c17.066 0 27.73-8.531 32-25.602-6.399 8.536-13.867 11.735-22.399 9.602-4.87-1.215-8.347-4.746-12.207-8.66-6.27-6.367-13.53-13.738-29.394-13.738zM32.004 64c-17.066 0-27.73 8.531-32 25.602C6.402 81.066 13.87 77.867 22.402 80c4.871 1.215 8.352 4.746 12.207 8.66 6.274 6.367 13.536 13.738 29.395 13.738 17.066 0 27.73-8.53 32-25.597-6.399 8.531-13.867 11.73-22.399 9.597-4.87-1.214-8.347-4.746-12.207-8.66C55.128 71.371 47.868 64 32.004 64zm0 0" fill="#38bdf8"/></svg><text class="name" x="644" y="27" text-anchor="middle" transform="translate(0 108)">TAILWIND</text></g>
  </g>
</svg>
