<svg xmlns="http://www.w3.org/2000/svg" viewBox="0 0 860 218" width="860" height="218" role="img" aria-labelledby="title desc">
  <title id="title">LANGUAGES / FILM TOOLKIT</title>
  <desc id="desc">Animated ink and film toolkit reel with real tool logos.</desc>
  <defs>
    <style>
      .bg { fill:#050306; }
      .paper { fill:#0A0610; }
      .card { fill:#0A0610; stroke:#7B2CBF; stroke-width:2; }
      .logoCell { fill:#120818; stroke:#2A083F; stroke-width:2; }
      .cut { stroke:#2A083F; stroke-width:2; }
      .title { font-family:'Courier New', Courier, monospace; font-size:18px; font-weight:900; letter-spacing:3px; fill:#F2EAFB; stroke:#2A083F; stroke-width:2px; paint-order:stroke; }
      .name { font-family:'Courier New', Courier, monospace; font-size:13px; font-weight:900; letter-spacing:1px; fill:#F2EAFB; }
      .small { font-family:'Courier New', Courier, monospace; font-size:9px; font-weight:900; fill:#A99AB8; letter-spacing:2px; }
      @keyframes lift { 0%,100%{transform:translateY(0)} 50%{transform:translateY(-4px)} }
      @keyframes pass { 0%{transform:translateX(-220px);opacity:0} 25%,75%{opacity:.65} 100%{transform:translateX(900px);opacity:0} }
      .a1{animation:lift 3s steps(2,end) infinite}.a2{animation:lift 3s steps(2,end) .18s infinite}.a3{animation:lift 3s steps(2,end) .36s infinite}.a4{animation:lift 3s steps(2,end) .54s infinite}.a5{animation:lift 3s steps(2,end) .72s infinite}
      .wipe{animation:pass 5s linear infinite}
    </style>
  </defs>
  <rect class="bg" width="860" height="218"/>
  <path class="paper" d="M0 0H860V24C782 15 731 35 652 22C574 9 507 35 430 21C352 8 291 8 219 23C142 40 69 14 0 30Z"/>
  <path class="paper" d="M0 192C78 202 139 180 218 194C295 208 355 187 430 197C509 209 574 185 652 196C733 207 790 194 860 186V218H0Z"/>
  <rect class="paper" x="20" y="40" width="820" height="2" opacity=".65"/>
  <rect class="paper" x="20" y="174" width="820" height="2" opacity=".65"/>
  <g class="wipe"><path class="paper" d="M20 96C76 75 119 114 177 91C234 69 280 112 338 88V132C273 153 235 108 174 136C112 164 75 119 20 141Z" opacity=".14"/></g>
  <text class="title" x="430" y="31" text-anchor="middle">LANGUAGES / FILM TOOLKIT</text>
  <text class="small" x="430" y="200" text-anchor="middle">PYTHON / JAVASCRIPT / TYPESCRIPT / JAVA / C++ / C# / RUST / PHP / LUA / ASSEMBLY</text>
  <g transform="translate(52 58)">
    <g class="a1"><rect class="card" x="0" y="0" width="150" height="42" rx="4"/><rect class="logoCell" x="0" y="0" width="46" height="42" rx="4"/><path class="cut" d="M46 1V41"/><svg x="9" y="7" width="28" height="28" viewBox="0 0 128 128" preserveAspectRatio="xMidYMid meet" aria-hidden="true"><linearGradient id="python-python-original-a" gradientUnits="userSpaceOnUse" x1="70.252" y1="1237.476" x2="170.659" y2="1151.089" gradientTransform="matrix(.563 0 0 -.568 -29.215 707.817)"><stop offset="0" stop-color="#5A9FD4"/><stop offset="1" stop-color="#306998"/></linearGradient><linearGradient id="python-python-original-b" gradientUnits="userSpaceOnUse" x1="209.474" y1="1098.811" x2="173.62" y2="1149.537" gradientTransform="matrix(.563 0 0 -.568 -29.215 707.817)"><stop offset="0" stop-color="#FFD43B"/><stop offset="1" stop-color="#FFE873"/></linearGradient><path fill="url(#python-python-original-a)" d="M63.391 1.988c-4.222.02-8.252.379-11.8 1.007-10.45 1.846-12.346 5.71-12.346 12.837v9.411h24.693v3.137H29.977c-7.176 0-13.46 4.313-15.426 12.521-2.268 9.405-2.368 15.275 0 25.096 1.755 7.311 5.947 12.519 13.124 12.519h8.491V67.234c0-8.151 7.051-15.34 15.426-15.34h24.665c6.866 0 12.346-5.654 12.346-12.548V15.833c0-6.693-5.646-11.72-12.346-12.837-4.244-.706-8.645-1.027-12.866-1.008zM50.037 9.557c2.55 0 4.634 2.117 4.634 4.721 0 2.593-2.083 4.69-4.634 4.69-2.56 0-4.633-2.097-4.633-4.69-.001-2.604 2.073-4.721 4.633-4.721z" transform="translate(0 10.26)"/><path fill="url(#python-python-original-b)" d="M91.682 28.38v10.966c0 8.5-7.208 15.655-15.426 15.655H51.591c-6.756 0-12.346 5.783-12.346 12.549v23.515c0 6.691 5.818 10.628 12.346 12.547 7.816 2.297 15.312 2.713 24.665 0 6.216-1.801 12.346-5.423 12.346-12.547v-9.412H63.938v-3.138h37.012c7.176 0 9.852-5.005 12.348-12.519 2.578-7.735 2.467-15.174 0-25.096-1.774-7.145-5.161-12.521-12.348-12.521h-9.268zM77.809 87.927c2.561 0 4.634 2.097 4.634 4.692 0 2.602-2.074 4.719-4.634 4.719-2.55 0-4.633-2.117-4.633-4.719 0-2.595 2.083-4.692 4.633-4.692z" transform="translate(0 10.26)"/><radialGradient id="python-python-original-c" cx="1825.678" cy="444.45" r="26.743" gradientTransform="matrix(0 -.24 -1.055 0 532.979 557.576)" gradientUnits="userSpaceOnUse"><stop offset="0" stop-color="#B8B8B8" stop-opacity=".498"/><stop offset="1" stop-color="#7F7F7F" stop-opacity="0"/></radialGradient><path opacity=".444" fill="url(#python-python-original-c)" d="M97.309 119.597c0 3.543-14.816 6.416-33.091 6.416-18.276 0-33.092-2.873-33.092-6.416 0-3.544 14.815-6.417 33.092-6.417 18.275 0 33.091 2.872 33.091 6.417z"/></svg><text class="name" x="98" y="27" text-anchor="middle" transform="translate(0 0)">PYTHON</text></g>
    <g class="a2"><rect class="card" x="158" y="0" width="174" height="42" rx="4"/><rect class="logoCell" x="158" y="0" width="46" height="42" rx="4"/><path class="cut" d="M204 1V41"/><svg x="167" y="7" width="28" height="28" viewBox="0 0 128 128" preserveAspectRatio="xMidYMid meet" aria-hidden="true"><path fill="#F0DB4F" d="M1.408 1.408h125.184v125.185H1.408z"/><path fill="#323330" d="M116.347 96.736c-.917-5.711-4.641-10.508-15.672-14.981-3.832-1.761-8.104-3.022-9.377-5.926-.452-1.69-.512-2.642-.226-3.665.821-3.32 4.784-4.355 7.925-3.403 2.023.678 3.938 2.237 5.093 4.724 5.402-3.498 5.391-3.475 9.163-5.879-1.381-2.141-2.118-3.129-3.022-4.045-3.249-3.629-7.676-5.498-14.756-5.355l-3.688.477c-3.534.893-6.902 2.748-8.877 5.235-5.926 6.724-4.236 18.492 2.975 23.335 7.104 5.332 17.54 6.545 18.873 11.531 1.297 6.104-4.486 8.08-10.234 7.378-4.236-.881-6.592-3.034-9.139-6.949-4.688 2.713-4.688 2.713-9.508 5.485 1.143 2.499 2.344 3.63 4.26 5.795 9.068 9.198 31.76 8.746 35.83-5.176.165-.478 1.261-3.666.38-8.581zM69.462 58.943H57.753l-.048 30.272c0 6.438.333 12.34-.714 14.149-1.713 3.558-6.152 3.117-8.175 2.427-2.059-1.012-3.106-2.451-4.319-4.485-.333-.584-.583-1.036-.667-1.071l-9.52 5.83c1.583 3.249 3.915 6.069 6.902 7.901 4.462 2.678 10.459 3.499 16.731 2.059 4.082-1.189 7.604-3.652 9.448-7.401 2.666-4.915 2.094-10.864 2.07-17.444.06-10.735.001-21.468.001-32.237z"/></svg><text class="name" x="268" y="27" text-anchor="middle" transform="translate(0 0)">JAVASCRIPT</text></g>
    <g class="a3"><rect class="card" x="340" y="0" width="174" height="42" rx="4"/><rect class="logoCell" x="340" y="0" width="46" height="42" rx="4"/><path class="cut" d="M386 1V41"/><svg x="349" y="7" width="28" height="28" viewBox="0 0 128 128" preserveAspectRatio="xMidYMid meet" aria-hidden="true"><path fill="#fff" d="M22.67 47h99.67v73.67H22.67z"/><path data-name="original" fill="#007acc" d="M1.5 63.91v62.5h125v-125H1.5zm100.73-5a15.56 15.56 0 017.82 4.5 20.58 20.58 0 013 4c0 .16-5.4 3.81-8.69 5.85-.12.08-.6-.44-1.13-1.23a7.09 7.09 0 00-5.87-3.53c-3.79-.26-6.23 1.73-6.21 5a4.58 4.58 0 00.54 2.34c.83 1.73 2.38 2.76 7.24 4.86 8.95 3.85 12.78 6.39 15.16 10 2.66 4 3.25 10.46 1.45 15.24-2 5.2-6.9 8.73-13.83 9.9a38.32 38.32 0 01-9.52-.1 23 23 0 01-12.72-6.63c-1.15-1.27-3.39-4.58-3.25-4.82a9.34 9.34 0 011.15-.73L82 101l3.59-2.08.75 1.11a16.78 16.78 0 004.74 4.54c4 2.1 9.46 1.81 12.16-.62a5.43 5.43 0 00.69-6.92c-1-1.39-3-2.56-8.59-5-6.45-2.78-9.23-4.5-11.77-7.24a16.48 16.48 0 01-3.43-6.25 25 25 0 01-.22-8c1.33-6.23 6-10.58 12.82-11.87a31.66 31.66 0 019.49.26zm-29.34 5.24v5.12H56.66v46.23H45.15V69.26H28.88v-5a49.19 49.19 0 01.12-5.17C29.08 59 39 59 51 59h21.83z"/></svg><text class="name" x="450" y="27" text-anchor="middle" transform="translate(0 0)">TYPESCRIPT</text></g>
    <g class="a4"><rect class="card" x="522" y="0" width="122" height="42" rx="4"/><rect class="logoCell" x="522" y="0" width="46" height="42" rx="4"/><path class="cut" d="M568 1V41"/><svg x="531" y="7" width="28" height="28" viewBox="0 0 128 128" preserveAspectRatio="xMidYMid meet" aria-hidden="true"><path fill="#0074BD" d="M47.617 98.12s-4.767 2.774 3.397 3.71c9.892 1.13 14.947.968 25.845-1.092 0 0 2.871 1.795 6.873 3.351-24.439 10.47-55.308-.607-36.115-5.969zm-2.988-13.665s-5.348 3.959 2.823 4.805c10.567 1.091 18.91 1.18 33.354-1.6 0 0 1.993 2.025 5.132 3.131-29.542 8.64-62.446.68-41.309-6.336z"/><path fill="#EA2D2E" d="M69.802 61.271c6.025 6.935-1.58 13.17-1.58 13.17s15.289-7.891 8.269-17.777c-6.559-9.215-11.587-13.792 15.635-29.58 0 .001-42.731 10.67-22.324 34.187z"/><path fill="#0074BD" d="M102.123 108.229s3.529 2.91-3.888 5.159c-14.102 4.272-58.706 5.56-71.094.171-4.451-1.938 3.899-4.625 6.526-5.192 2.739-.593 4.303-.485 4.303-.485-4.953-3.487-32.013 6.85-13.743 9.815 49.821 8.076 90.817-3.637 77.896-9.468zM49.912 70.294s-22.686 5.389-8.033 7.348c6.188.828 18.518.638 30.011-.326 9.39-.789 18.813-2.474 18.813-2.474s-3.308 1.419-5.704 3.053c-23.042 6.061-67.544 3.238-54.731-2.958 10.832-5.239 19.644-4.643 19.644-4.643zm40.697 22.747c23.421-12.167 12.591-23.86 5.032-22.285-1.848.385-2.677.72-2.677.72s.688-1.079 2-1.543c14.953-5.255 26.451 15.503-4.823 23.725 0-.002.359-.327.468-.617z"/><path fill="#EA2D2E" d="M76.491 1.587S89.459 14.563 64.188 34.51c-20.266 16.006-4.621 25.13-.007 35.559-11.831-10.673-20.509-20.07-14.688-28.815C58.041 28.42 81.722 22.195 76.491 1.587z"/><path fill="#0074BD" d="M52.214 126.021c22.476 1.437 57-.8 57.817-11.436 0 0-1.571 4.032-18.577 7.231-19.186 3.612-42.854 3.191-56.887.874 0 .001 2.875 2.381 17.647 3.331z"/></svg><text class="name" x="606" y="27" text-anchor="middle" transform="translate(0 0)">JAVA</text></g>
    <g class="a5"><rect class="card" x="652" y="0" width="116" height="42" rx="4"/><rect class="logoCell" x="652" y="0" width="46" height="42" rx="4"/><path class="cut" d="M698 1V41"/><svg x="661" y="7" width="28" height="28" viewBox="0 0 128 128" preserveAspectRatio="xMidYMid meet" aria-hidden="true"><path fill="#00599c" d="M118.766 95.82c.89-1.543 1.441-3.28 1.441-4.843V36.78c0-1.558-.55-3.297-1.441-4.84l-55.32 31.94Zm0 0"/>
  <path fill="#004482" d="m68.36 126.586 46.933-27.094c1.352-.781 2.582-2.129 3.473-3.672l-55.32-31.94L8.12 95.82c.89 1.543 2.121 2.89 3.473 3.672l46.933 27.094c2.703 1.562 7.13 1.562 9.832 0Zm0 0"/>
  <path fill="#659ad2" d="M118.766 31.941c-.891-1.546-2.121-2.894-3.473-3.671L68.359 1.172c-2.703-1.563-7.129-1.563-9.832 0L11.594 28.27C8.89 29.828 6.68 33.66 6.68 36.78v54.196c0 1.562.55 3.3 1.441 4.843L63.445 63.88Zm0 0"/>
  <path fill="#fff" d="M63.445 26.035c-20.867 0-37.843 16.977-37.843 37.844s16.976 37.844 37.843 37.844c13.465 0 26.024-7.247 32.77-18.91L79.84 73.335c-3.38 5.84-9.66 9.465-16.395 9.465-10.433 0-18.922-8.488-18.922-18.922 0-10.434 8.49-18.922 18.922-18.922 6.73 0 13.017 3.629 16.39 9.465l16.38-9.477c-6.75-11.664-19.305-18.91-32.77-18.91zM92.88 57.57v4.207h-4.207v4.203h4.207v4.207h4.203V65.98h4.203v-4.203h-4.203V57.57H92.88zm15.766 0v4.207h-4.204v4.203h4.204v4.207h4.207V65.98h4.203v-4.203h-4.203V57.57h-4.207z"/></svg><text class="name" x="733" y="27" text-anchor="middle" transform="translate(0 0)">C++</text></g>
    <g class="a1"><rect class="card" x="0" y="54" width="116" height="42" rx="4"/><rect class="logoCell" x="0" y="54" width="46" height="42" rx="4"/><path class="cut" d="M46 55V95"/><svg x="9" y="61" width="28" height="28" viewBox="0 0 128 128" preserveAspectRatio="xMidYMid meet" aria-hidden="true"><path fill="#9B4F96" d="M115.4 30.7L67.1 2.9c-.8-.5-1.9-.7-3.1-.7-1.2 0-2.3.3-3.1.7l-48 27.9c-1.7 1-2.9 3.5-2.9 5.4v55.7c0 1.1.2 2.4 1 3.5l106.8-62c-.6-1.2-1.5-2.1-2.4-2.7z"/><path fill="#68217A" d="M10.7 95.3c.5.8 1.2 1.5 1.9 1.9l48.2 27.9c.8.5 1.9.7 3.1.7 1.2 0 2.3-.3 3.1-.7l48-27.9c1.7-1 2.9-3.5 2.9-5.4V36.1c0-.9-.1-1.9-.6-2.8l-106.6 62z"/><path fill="#fff" d="M85.3 76.1C81.1 83.5 73.1 88.5 64 88.5c-13.5 0-24.5-11-24.5-24.5s11-24.5 24.5-24.5c9.1 0 17.1 5 21.3 12.5l13-7.5c-6.8-11.9-19.6-20-34.3-20-21.8 0-39.5 17.7-39.5 39.5s17.7 39.5 39.5 39.5c14.6 0 27.4-8 34.2-19.8l-12.9-7.6zM97 66.2l.9-4.3h-4.2v-4.7h5.1L100 51h4.9l-1.2 6.1h3.8l1.2-6.1h4.8l-1.2 6.1h2.4v4.7h-3.3l-.9 4.3h4.2v4.7h-5.1l-1.2 6h-4.9l1.2-6h-3.8l-1.2 6h-4.8l1.2-6h-2.4v-4.7H97zm4.8 0h3.8l.9-4.3h-3.8l-.9 4.3z"/></svg><text class="name" x="81" y="27" text-anchor="middle" transform="translate(0 54)">C#</text></g>
    <g class="a2"><rect class="card" x="124" y="54" width="120" height="42" rx="4"/><rect class="logoCell" x="124" y="54" width="46" height="42" rx="4"/><path class="cut" d="M170 55V95"/><svg x="133" y="61" width="28" height="28" viewBox="0 0 128 128" preserveAspectRatio="xMidYMid meet" aria-hidden="true"><path d="M62.96.242c-.232.135-1.203 1.528-2.16 3.097-2.4 3.94-2.426 3.942-5.65.55-2.098-2.208-2.605-2.612-3.28-2.607-.44.002-.995.152-1.235.332-.24.18-.916 1.612-1.504 3.183-1.346 3.6-1.41 3.715-2.156 3.86-.46.086-1.343-.407-3.463-1.929-1.565-1.125-3.1-2.045-3.411-2.045-1.291 0-1.655.706-2.27 4.4-.78 4.697-.754 4.681-4.988 2.758-1.71-.776-3.33-1.41-3.603-1.41-.274 0-.792.293-1.15.652-.652.652-.653.655-.475 4.246l.178 3.595-.68.364c-.602.322-1.017.283-3.684-.348-3.48-.822-4.216-.8-4.92.15l-.516.693.692 2.964c.38 1.63.745 3.2.814 3.487.067.287-.05.746-.26 1.02-.348.448-.717.49-3.94.44-5.452-.086-5.761.382-3.51 5.3.718 1.56 1.305 2.98 1.305 3.15 0 .898-.717 1.224-3.794 1.727-1.722.28-3.218.51-3.326.51-.107 0-.43.235-.717.522-.937.936-.671 1.816 1.453 4.814 2.646 3.735 2.642 3.75-1.73 5.421-4.971 1.902-5.072 2.37-1.287 5.96 3.525 3.344 3.53 3.295-.461 5.804C.208 62.8.162 62.846.085 63.876c-.093 1.253-.071 1.275 3.538 3.48 3.57 2.18 3.57 2.246.067 5.56C-.078 76.48.038 77 5.013 78.877c4.347 1.64 4.353 1.66 1.702 5.394-1.502 2.117-1.981 3-1.981 3.653 0 1.223.637 1.535 4.44 2.174 3.206.54 3.92.857 3.92 1.741 0 .182-.588 1.612-1.307 3.177-2.236 4.87-1.981 5.275 3.31 5.275 4.93 0 4.799-.15 3.737 4.294-.8 3.35-.813 3.992-.088 4.715.554.556 1.6.494 4.87-.289 2.499-.596 2.937-.637 3.516-.328l.66.354-.177 3.594c-.178 3.593-.177 3.595.475 4.248.358.36.884.652 1.165.652.282 0 1.903-.63 3.604-1.404 4.22-1.916 4.194-1.932 4.973 2.75.617 3.711.977 4.4 2.294 4.4.327 0 1.83-.88 3.34-1.958 2.654-1.893 3.342-2.19 4.049-1.74.182.115.89 1.67 1.572 3.455 1.003 2.625 1.37 3.31 1.929 3.576 1.062.51 1.72.1 4.218-2.62 3.016-3.286 3.14-3.27 5.602.72 2.72 4.406 3.424 4.396 6.212-.089 2.402-3.864 2.374-3.862 5.621-.47 2.157 2.25 2.616 2.61 3.343 2.61.464 0 1.019-.175 1.23-.388.214-.213.92-1.786 1.568-3.496.649-1.71 1.321-3.2 1.495-3.31.687-.436 1.398-.13 4.048 1.752 1.56 1.108 3.028 1.96 3.377 1.96 1.296 0 1.764-.92 2.302-4.535.46-3.082.554-3.378 1.16-3.685.596-.302.954-.2 3.75 1.07 1.701.77 3.323 1.402 3.604 1.402.282 0 .816-.302 1.184-.672l.672-.67-.184-3.448c-.177-3.29-.16-3.468.364-3.943.54-.488.596-.486 3.615.204 3.656.835 4.338.857 5.025.17.671-.67.664-.818-.254-4.69-1.03-4.346-1.168-4.19 3.78-4.19 3.374 0 3.75-.049 4.18-.523.718-.793.547-1.702-.896-4.779-.729-1.55-1.32-2.96-1.315-3.135.024-.914.743-1.227 4.065-1.767 2.033-.329 3.553-.71 3.829-.96.923-.833.584-1.918-1.523-4.873-2.642-3.703-2.63-3.738 1.599-5.297 5.064-1.866 5.209-2.488 1.419-6.09-3.51-3.335-3.512-3.317.333-5.677 4.648-2.853 4.655-3.496.082-6.335-3.933-2.44-3.93-2.406-.405-5.753 3.78-3.593 3.678-4.063-1.295-5.965-4.388-1.679-4.402-1.72-1.735-5.38 1.588-2.18 1.982-2.903 1.982-3.65 0-1.306-.586-1.598-4.436-2.22-3.216-.52-3.924-.835-3.924-1.75 0-.174.588-1.574 1.307-3.113 1.406-3.013 1.604-4.22.808-4.94-.428-.387-1-.443-4.067-.392-3.208.054-3.618.008-4.063-.439-.486-.488-.48-.557.278-3.725.931-3.88.935-3.975.17-4.694-.777-.73-1.262-.718-4.826.121-2.597.612-3.027.653-3.617.337l-.67-.36.185-3.582.186-3.58-.67-.67c-.369-.37-.891-.67-1.163-.67-.27 0-1.884.64-3.583 1.421-2.838 1.306-3.143 1.393-3.757 1.072-.612-.32-.714-.637-1.237-3.829-.603-3.693-.977-4.412-2.288-4.412-.311 0-1.853.925-3.426 2.055-2.584 1.856-2.93 2.032-3.574 1.807-.533-.186-.843-.59-1.221-1.599-.28-.742-.817-2.172-1.194-3.177-.762-2.028-1.187-2.482-2.328-2.482-.637 0-1.213.458-3.28 2.604-3.25 3.375-3.261 3.374-5.65-.545C66.073 1.78 65.075.382 64.81.24c-.597-.32-1.3-.32-1.85.002m2.96 11.798c2.83 2.014 1.326 6.75-2.144 6.75-3.368 0-5.064-4.057-2.66-6.36 1.358-1.3 3.304-1.459 4.805-.39m-3.558 12.507c1.855.705 2.616.282 6.852-3.8l3.182-3.07 1.347.18c4.225.56 12.627 4.25 17.455 7.666 4.436 3.14 10.332 9.534 12.845 13.93l.537.942-2.38 5.364c-1.31 2.95-2.382 5.673-2.382 6.053 0 .878.576 2.267 1.13 2.726.234.195 2.457 1.265 4.939 2.378l4.51 2.025.178 1.148c.23 1.495.26 5.167.052 6.21l-.163.816h-2.575c-2.987 0-2.756-.267-2.918 3.396-.118 2.656-.76 4.124-2.22 5.075-2.377 1.551-6.304 1.27-7.97-.57-.255-.284-.752-1.705-1.105-3.16-1.03-4.254-2.413-6.64-5.193-8.965-.878-.733-1.595-1.418-1.595-1.522 0-.102.965-.915 2.145-1.803 4.298-3.24 6.77-7.012 7.04-10.747.519-7.126-5.158-13.767-13.602-15.92-2.002-.51-2.857-.526-27.624-.526-14.057 0-25.56-.092-25.56-.204 0-.263 3.125-3.295 4.965-4.816 5.054-4.178 11.618-7.465 18.417-9.22l2.35-.61 3.34 3.387c1.839 1.863 3.64 3.5 4.003 3.637M20.3 46.34c1.539 1.008 2.17 3.54 1.26 5.062-1.405 2.356-4.966 2.455-6.373.178-2.046-3.309 1.895-7.349 5.113-5.24m90.672.13c4.026 2.454.906 8.493-3.404 6.586-2.877-1.273-2.97-5.206-.155-6.64 1.174-.6 2.523-.579 3.56.053M32.163 61.5v15.02h-13.28l-.526-2.285c-1.036-4.5-1.472-9.156-1.211-12.969l.182-2.679 4.565-2.047c2.864-1.283 4.706-2.262 4.943-2.625 1.038-1.584.94-2.715-.518-5.933l-.68-1.502h6.523V61.5M70.39 47.132c2.843.74 4.345 2.245 4.349 4.355.002 1.55-.765 2.52-2.67 3.38-1.348.61-1.562.625-10.063.708l-8.686.084v-8.92h7.782c6.078 0 8.112.086 9.288.393m-2.934 21.554c1.41.392 3.076 1.616 3.93 2.888.898 1.337 1.423 3.076 2.667 8.836 1.05 4.87 1.727 6.46 3.62 8.532 2.345 2.566 1.8 2.466 13.514 2.466 5.61 0 10.198.09 10.198.2 0 .197-3.863 4.764-4.03 4.764-.048 0-2.066-.422-4.484-.939-6.829-1.458-7.075-1.287-8.642 6.032l-1.008 4.702-.91.448c-1.518.75-6.453 2.292-9.01 2.82-4.228.87-8.828 1.162-12.871.821-6.893-.585-16.02-3.259-16.377-4.8-.075-.327-.535-2.443-1.018-4.704-.485-2.26-1.074-4.404-1.31-4.764-1.13-1.724-2.318-1.83-7.547-.674-1.98.44-3.708.796-3.84.796-.248 0-3.923-4.249-3.923-4.535 0-.09 8.728-.194 19.396-.23l19.395-.066.07-6.89c.05-4.865-.018-6.997-.23-7.25-.234-.284-1.485-.358-6.011-.358H53.32v-8.36l6.597.001c3.626.002 7.02.12 7.539.264M37.57 100.02c3.084 1.88 1.605 6.804-2.043 6.8-3.74 0-5.127-4.88-1.94-6.826 1.055-.643 2.908-.63 3.983.026m56.48.206c1.512 1.108 2.015 3.413 1.079 4.95-2.46 4.034-8.612.827-6.557-3.419 1.01-2.085 3.695-2.837 5.478-1.53"/></svg><text class="name" x="207" y="27" text-anchor="middle" transform="translate(0 54)">RUST</text></g>
    <g class="a3"><rect class="card" x="252" y="54" width="106" height="42" rx="4"/><rect class="logoCell" x="252" y="54" width="46" height="42" rx="4"/><path class="cut" d="M298 55V95"/><svg x="261" y="61" width="28" height="28" viewBox="0 0 128 128" preserveAspectRatio="xMidYMid meet" aria-hidden="true"><path fill="url(#php-a)" d="M0 64c0 18.593 28.654 33.667 64 33.667 35.346 0 64-15.074 64-33.667 0-18.593-28.655-33.667-64-33.667C28.654 30.333 0 45.407 0 64Z"/><path fill="#777bb3" d="M64 95.167c33.965 0 61.5-13.955 61.5-31.167 0-17.214-27.535-31.167-61.5-31.167S2.5 46.786 2.5 64c0 17.212 27.535 31.167 61.5 31.167Z"/><path d="M34.772 67.864c2.793 0 4.877-.515 6.196-1.53 1.306-1.006 2.207-2.747 2.68-5.175.44-2.27.272-3.854-.5-4.71-.788-.874-2.493-1.317-5.067-1.317h-4.464l-2.473 12.732zM20.173 83.547a.694.694 0 0 1-.68-.828l6.557-33.738a.695.695 0 0 1 .68-.561h14.134c4.442 0 7.748 1.206 9.827 3.585 2.088 2.39 2.734 5.734 1.917 9.935-.333 1.711-.905 3.3-1.7 4.724a15.818 15.818 0 0 1-3.128 3.92c-1.531 1.432-3.264 2.472-5.147 3.083-1.852.604-4.232.91-7.07.91h-5.724l-1.634 8.408a.695.695 0 0 1-.682.562z"/><path fill="#fff" d="M34.19 55.826h3.891c3.107 0 4.186.682 4.553 1.089.607.674.723 2.097.331 4.112-.439 2.257-1.253 3.858-2.42 4.756-1.194.92-3.138 1.386-5.773 1.386h-2.786l2.205-11.342zm6.674-8.1H26.731a1.39 1.39 0 0 0-1.364 1.123L18.81 82.588a1.39 1.39 0 0 0 1.363 1.653h7.35a1.39 1.39 0 0 0 1.363-1.124l1.525-7.846h5.151c2.912 0 5.364-.318 7.287-.944 1.977-.642 3.796-1.731 5.406-3.237a16.522 16.522 0 0 0 3.259-4.087c.831-1.487 1.429-3.147 1.775-4.931.86-4.423.161-7.964-2.076-10.524-2.216-2.537-5.698-3.823-10.349-3.823zM30.301 68.557h4.471c2.963 0 5.17-.557 6.62-1.675 1.451-1.116 2.428-2.98 2.938-5.591.485-2.508.264-4.277-.665-5.308-.931-1.03-2.791-1.546-5.584-1.546h-5.036l-2.743 14.12m10.563-19.445c4.252 0 7.353 1.117 9.303 3.348 1.95 2.232 2.536 5.347 1.76 9.346-.322 1.648-.863 3.154-1.625 4.518-.764 1.366-1.76 2.614-2.991 3.747-1.468 1.373-3.097 2.352-4.892 2.935-1.794.584-4.08.875-6.857.875h-6.296l-1.743 8.97h-7.35l6.558-33.739h14.133"/><path d="M69.459 74.577a.694.694 0 0 1-.682-.827l2.9-14.928c.277-1.42.209-2.438-.19-2.87-.245-.263-.979-.704-3.15-.704h-5.256l-3.646 18.768a.695.695 0 0 1-.683.56h-7.29a.695.695 0 0 1-.683-.826l6.558-33.739a.695.695 0 0 1 .682-.561h7.29a.695.695 0 0 1 .683.826L64.41 48.42h5.653c4.307 0 7.227.758 8.928 2.321 1.733 1.593 2.275 4.14 1.608 7.573l-3.051 15.702a.695.695 0 0 1-.682.56h-7.407z"/><path fill="#fff" d="M65.31 38.755h-7.291a1.39 1.39 0 0 0-1.364 1.124l-6.557 33.738a1.39 1.39 0 0 0 1.363 1.654h7.291a1.39 1.39 0 0 0 1.364-1.124l3.537-18.205h4.682c2.168 0 2.624.463 2.641.484.132.14.305.795.019 2.264l-2.9 14.927a1.39 1.39 0 0 0 1.364 1.654h7.408a1.39 1.39 0 0 0 1.363-1.124l3.051-15.7c.715-3.686.103-6.45-1.82-8.217-1.836-1.686-4.91-2.505-9.398-2.505h-4.81l1.421-7.315a1.39 1.39 0 0 0-1.364-1.655zm0 1.39-1.743 8.968h6.496c4.087 0 6.907.714 8.457 2.14 1.553 1.426 2.017 3.735 1.398 6.93l-3.052 15.699h-7.407l2.901-14.928c.33-1.698.208-2.856-.365-3.474-.573-.617-1.793-.926-3.658-.926h-5.829l-3.756 19.327H51.46l6.558-33.739h7.292z"/><path d="M92.136 67.864c2.793 0 4.878-.515 6.198-1.53 1.304-1.006 2.206-2.747 2.679-5.175.44-2.27.273-3.854-.5-4.71-.788-.874-2.493-1.317-5.067-1.317h-4.463l-2.475 12.732zM77.54 83.547a.694.694 0 0 1-.682-.828l6.557-33.738a.695.695 0 0 1 .682-.561H98.23c4.442 0 7.748 1.206 9.826 3.585 2.089 2.39 2.734 5.734 1.917 9.935a15.878 15.878 0 0 1-1.699 4.724 15.838 15.838 0 0 1-3.128 3.92c-1.53 1.432-3.265 2.472-5.147 3.083-1.852.604-4.232.91-7.071.91h-5.723l-1.633 8.408a.695.695 0 0 1-.683.562z"/><path fill="#fff" d="M91.555 55.826h3.891c3.107 0 4.186.682 4.552 1.089.61.674.724 2.097.333 4.112-.44 2.257-1.254 3.858-2.421 4.756-1.195.92-3.139 1.386-5.773 1.386h-2.786l2.204-11.342zm6.674-8.1H84.096a1.39 1.39 0 0 0-1.363 1.123l-6.558 33.739a1.39 1.39 0 0 0 1.364 1.653h7.35a1.39 1.39 0 0 0 1.363-1.124l1.525-7.846h5.15c2.911 0 5.364-.318 7.286-.944 1.978-.642 3.797-1.731 5.408-3.238a16.52 16.52 0 0 0 3.258-4.086c.832-1.487 1.428-3.147 1.775-4.931.86-4.423.162-7.964-2.076-10.524-2.216-2.537-5.697-3.823-10.35-3.823zM87.666 68.557h4.47c2.964 0 5.17-.557 6.622-1.675 1.45-1.116 2.428-2.98 2.936-5.591.487-2.508.266-4.277-.665-5.308-.93-1.03-2.791-1.546-5.583-1.546h-5.035Zm10.563-19.445c4.251 0 7.354 1.117 9.303 3.348 1.95 2.232 2.537 5.347 1.759 9.346-.32 1.648-.862 3.154-1.624 4.518-.763 1.366-1.76 2.614-2.992 3.747-1.467 1.373-3.097 2.352-4.892 2.935-1.793.584-4.078.875-6.856.875h-6.295l-1.745 8.97h-7.35l6.558-33.739h14.133"/><defs><radialGradient id="php-a" cx="0" cy="0" r="1" gradientTransform="matrix(84.04136 0 0 84.04136 38.426 42.169)" gradientUnits="userSpaceOnUse"><stop stop-color="#AEB2D5"/><stop offset=".3" stop-color="#AEB2D5"/><stop offset=".75" stop-color="#484C89"/><stop offset="1" stop-color="#484C89"/></radialGradient></defs></svg><text class="name" x="328" y="27" text-anchor="middle" transform="translate(0 54)">PHP</text></g>
    <g class="a4"><rect class="card" x="366" y="54" width="106" height="42" rx="4"/><rect class="logoCell" x="366" y="54" width="46" height="42" rx="4"/><path class="cut" d="M412 55V95"/><svg x="375" y="61" width="28" height="28" viewBox="0 0 128 128" preserveAspectRatio="xMidYMid meet" aria-hidden="true"><path fill="#000080" d="M112.956.708c-7.912 0-14.335 6.424-14.335 14.336s6.424 14.335 14.335 14.335 14.335-6.41 14.335-14.335c0-7.912-6.424-14.336-14.335-14.336zM64 15.058c-27.02 0-48.956 21.935-48.956 48.955S36.979 112.97 64 112.97c27.02 0 48.956-21.935 48.956-48.956 0-27.02-21.936-48.956-48.956-48.956z"/><path fill="#fff" d="M84.285 29.392c-7.91 0-14.335 6.424-14.335 14.335s6.424 14.336 14.335 14.336 14.336-6.424 14.336-14.336-6.424-14.335-14.335-14.335zM30.773 56.36v32.119h19.961v-3.611H34.87V56.359Zm57.584 8.37c-3.354 0-6.126.975-7.668 2.692-1.055 1.19-1.488 2.516-1.582 4.801h3.705c.311-2.826 1.988-4.098 5.423-4.098 3.3 0 5.153 1.231 5.153 3.435v.974c0 1.542-.92 2.205-3.827 2.556-5.193.663-5.991.839-7.398 1.407-2.69 1.095-4.057 3.164-4.057 6.166 0 4.193 2.908 6.83 7.574 6.83 2.907 0 5.247-1.014 7.843-3.395.257 2.34 1.407 3.395 3.787 3.395.757 0 1.325-.081 2.515-.392v-2.773a2.917 2.917 0 0 1-.798.095c-1.284 0-1.988-.663-1.988-1.812V71.032c0-4.098-3.002-6.302-8.682-6.302zm-33.742.664V83.19c0 3.84 2.867 6.302 7.357 6.302 3.395 0 5.545-1.19 7.709-4.233v3.219h3.3V65.393h-3.652v13.09c0 4.72-2.475 7.804-6.302 7.804-2.907 0-4.76-1.772-4.76-4.544v-16.35Zm38.773 11.67v4.139c0 1.244-.365 1.988-1.46 3.002-1.502 1.366-3.3 2.07-5.464 2.07-2.867 0-4.544-1.367-4.544-3.706 0-2.42 1.636-3.665 5.558-4.233 3.881-.528 4.68-.703 5.91-1.271z"/><path fill="#808080" d="M61.733 0a64.06 64.06 0 0 0-5.57.436l.179 1.458a62.596 62.596 0 0 1 5.442-.426zm5.585.046-.075 1.468a62.432 62.432 0 0 1 5.433.52L72.88.578a63.91 63.91 0 0 0-5.561-.532Zm-16.665 1.31a63.301 63.301 0 0 0-5.409 1.398l.43 1.405a61.835 61.835 0 0 1 5.284-1.367Zm27.72.237-.33 1.431a62.536 62.536 0 0 1 5.262 1.455l.452-1.397a63.998 63.998 0 0 0-5.384-1.489ZM39.98 4.623a63.447 63.447 0 0 0-5.081 2.323l.668 1.308a61.98 61.98 0 0 1 4.964-2.27zm49.012.41-.573 1.353a62.539 62.539 0 0 1 4.929 2.346l.688-1.298a64.012 64.012 0 0 0-5.044-2.4ZM30.04 9.706a63.95 63.95 0 0 0-4.6 3.17l.886 1.173a62.484 62.484 0 0 1 4.494-3.098zm-8.906 6.728a64.247 64.247 0 0 0-3.983 3.918l1.075 1.001a62.774 62.774 0 0 1 3.891-3.827zm-7.61 8.165a64.04 64.04 0 0 0-3.247 4.546l1.231.8a62.571 62.571 0 0 1 3.172-4.44zm-6.086 9.357a63.459 63.459 0 0 0-2.408 5.042l1.352.574a61.99 61.99 0 0 1 2.352-4.925zm113.623.973-1.31.667a62.616 62.616 0 0 1 2.263 4.967l1.362-.55a64.073 64.073 0 0 0-2.315-5.083zM3.075 44.23a63.382 63.382 0 0 0-1.49 5.385l1.432.328a61.91 61.91 0 0 1 1.455-5.26Zm122.166 1.049-1.404.429a62.513 62.513 0 0 1 1.366 5.285l1.437-.306a63.983 63.983 0 0 0-1.399-5.409zM.574 55.108a64.093 64.093 0 0 0-.528 5.561l1.467.075a62.622 62.622 0 0 1 .516-5.434Zm126.988 1.088-1.458.179a62.465 62.465 0 0 1 .428 5.441l1.468-.05a63.916 63.916 0 0 0-.438-5.57zM1.468 66.205 0 66.255a64.082 64.082 0 0 0 .435 5.57l1.458-.179a62.61 62.61 0 0 1-.425-5.441Zm125.018 1.071a62.63 62.63 0 0 1-.518 5.434l1.455.203a64.16 64.16 0 0 0 .53-5.561zM2.79 77.031l-1.437.304a63.332 63.332 0 0 0 1.398 5.41l1.405-.43A61.864 61.864 0 0 1 2.79 77.03Zm122.188 1.046a61.966 61.966 0 0 1-1.457 5.26l1.397.454a63.43 63.43 0 0 0 1.492-5.384zM5.981 87.459l-1.362.551a63.434 63.434 0 0 0 2.323 5.082l1.307-.669a61.968 61.968 0 0 1-2.268-4.964Zm115.627.99a61.98 61.98 0 0 1-2.354 4.925l1.296.69a63.447 63.447 0 0 0 2.41-5.04zM10.944 97.17l-1.245.78a63.949 63.949 0 0 0 3.17 4.6l1.172-.885a62.481 62.481 0 0 1-3.097-4.495zm105.534.904a62.546 62.546 0 0 1-3.173 4.44l1.156.906a64.024 64.024 0 0 0 3.249-4.545zm-98.96 7.8-1.092.983a64.235 64.235 0 0 0 3.917 3.983l1.002-1.074a62.77 62.77 0 0 1-3.827-3.892zm92.24.79a62.76 62.76 0 0 1-3.893 3.826l.983 1.092a64.221 64.221 0 0 0 3.984-3.916zm-84.263 6.648-.906 1.157a64.026 64.026 0 0 0 4.546 3.248l.8-1.232a62.554 62.554 0 0 1-4.44-3.173zm76.16.654a62.475 62.475 0 0 1-4.495 3.096l.78 1.245a63.945 63.945 0 0 0 4.6-3.17zm-67.018 5.294-.691 1.296a63.45 63.45 0 0 0 5.04 2.409l.575-1.352a61.984 61.984 0 0 1-4.924-2.353zm57.775.496a61.956 61.956 0 0 1-4.964 2.268l.551 1.362a63.425 63.425 0 0 0 5.082-2.322zm-47.74 3.77-.453 1.396a63.419 63.419 0 0 0 5.385 1.49l.329-1.43a61.949 61.949 0 0 1-5.26-1.456zm37.632.322a62.05 62.05 0 0 1-5.284 1.365l.304 1.437a63.361 63.361 0 0 0 5.41-1.398zm-27.003 2.122-.203 1.455a64.093 64.093 0 0 0 5.561.529l.075-1.467a62.605 62.605 0 0 1-5.433-.517zm16.335.139a62.635 62.635 0 0 1-5.442.424l.05 1.468a64.114 64.114 0 0 0 5.57-.434z"/></svg><text class="name" x="442" y="27" text-anchor="middle" transform="translate(0 54)">LUA</text></g>
    <g class="a5"><rect class="card" x="480" y="54" width="158" height="42" rx="4"/><rect class="logoCell" x="480" y="54" width="46" height="42" rx="4"/><path class="cut" d="M526 55V95"/><svg x="489" y="61" width="28" height="28" viewBox="0 0 24 24" preserveAspectRatio="xMidYMid meet" aria-hidden="true"><path fill="#007ACC" d="M0 0v24h24V0h-9.225c0 1.406-1.04 2.813-2.756 2.813A2.766 2.766 0 019.234 0zm18.204 10.947c.707 0 1.314.137 1.82.412.517.264.96.717 1.33 1.361l-1.726 1.108c-.19-.338-.395-.58-.617-.728a1.422 1.422 0 00-.807-.222c-.327 0-.586.09-.776.27a.896.896 0 00-.285.68c0 .337.106.596.317.775.222.17.57.36 1.045.57l.554.238c.474.2.891.411 1.25.633.37.21.675.453.918.728.253.264.443.57.57.918.137.337.206.738.206 1.203a3 3 0 01-.285 1.33c-.18.38-.433.701-.76.965a3.419 3.419 0 01-1.171.601c-.443.127-.929.19-1.456.19a5.31 5.31 0 01-1.41-.174 4.624 4.624 0 01-1.139-.475 3.922 3.922 0 01-.886-.712 4.48 4.48 0 01-.602-.902L16.1 18.67c.242.39.527.712.855.966.337.253.78.38 1.33.38.463 0 .827-.1 1.091-.301.275-.211.412-.475.412-.792 0-.38-.143-.664-.428-.854-.285-.19-.68-.396-1.187-.618l-.554-.237a8.12 8.12 0 01-1.092-.554 3.64 3.64 0 01-.839-.696 2.887 2.887 0 01-.538-.903 3.375 3.375 0 01-.19-1.187c0-.411.074-.796.222-1.155a2.91 2.91 0 01.649-.934c.285-.264.628-.47 1.029-.617.4-.148.849-.222 1.345-.222zm-8.796.032h.19l4.922 10.858h-2.327l-.506-1.219H7.318l-.506 1.219H4.675zm.063 3.988a22.21 22.21 0 01-.206.697l-.205.649a6.979 6.979 0 01-.222.585l-.776 1.868h2.834l-.776-1.868a15.492 15.492 0 01-.237-.633 23.741 23.741 0 01-.412-1.298z"/></svg><text class="name" x="582" y="27" text-anchor="middle" transform="translate(0 54)">ASSEMBLY</text></g>
  </g>
</svg>
